<svg width="48" height="48" viewBox="0 0 48 48" fill="none" xmlns="http://www.w3.org/2000/svg">
<mask id="path-1-outside-1" maskUnits="userSpaceOnUse" x="0.5" y="0.5" width="47" height="47" fill="black">
<rect fill="white" x="0.5" y="0.5" width="47" height="47"/>
<path fill-rule="evenodd" clip-rule="evenodd" d="M16.5 1.5H19.5H22.5H25.5H28.5H31.5V4.5H34.5H37.5V7.5H40.5V10.5H43.5V13.5V16.5H46.5V19.5V22.5V25.5V28.5V31.5H43.5V34.5V37.5H40.5V40.5H37.5V43.5H34.5H31.5V46.5H28.5H25.5H22.5H19.5H16.5V43.5H13.5H10.5V40.5H7.5V37.5H4.5V34.5V31.5H1.5V28.5V25.5V22.5V19.5V16.5H4.5V13.5V10.5H7.5V7.5H10.5V4.5H13.5H16.5V1.5Z"/>
</mask>
<path fill-rule="evenodd" clip-rule="evenodd" d="M16.5 1.5H19.5H22.5H25.5H28.5H31.5V4.5H34.5H37.5V7.5H40.5V10.5H43.5V13.5V16.5H46.5V19.5V22.5V25.5V28.5V31.5H43.5V34.5V37.5H40.5V40.5H37.5V43.5H34.5H31.5V46.5H28.5H25.5H22.5H19.5H16.5V43.5H13.5H10.5V40.5H7.5V37.5H4.5V34.5V31.5H1.5V28.5V25.5V22.5V19.5V16.5H4.5V13.5V10.5H7.5V7.5H10.5V4.5H13.5H16.5V1.5Z" fill="#EAFEFF"/>
<path d="M16.5 1.5V1.25H16.25V1.5H16.5ZM31.5 1.5H31.75V1.25H31.5V1.5ZM31.5 4.5H31.25V4.75H31.5V4.5ZM37.5 4.5H37.75V4.25H37.5V4.5ZM37.5 7.5H37.25V7.75H37.5V7.5ZM40.5 7.5H40.75V7.25H40.5V7.5ZM40.5 10.5H40.25V10.75H40.5V10.5ZM43.5 10.5H43.75V10.25H43.5V10.5ZM43.5 16.5H43.25V16.75H43.5V16.5ZM46.5 16.5H46.75V16.25H46.5V16.5ZM46.5 31.5V31.75H46.75V31.5H46.5ZM43.5 31.5V31.25H43.25V31.5H43.5ZM43.5 37.5V37.75H43.75V37.5H43.5ZM40.5 37.5V37.25H40.25V37.5H40.5ZM40.5 40.5V40.75H40.75V40.5H40.5ZM37.5 40.5V40.25H37.25V40.5H37.5ZM37.5 43.5V43.75H37.75V43.5H37.5ZM31.5 43.5V43.25H31.25V43.5H31.5ZM31.5 46.5V46.75H31.75V46.5H31.5ZM16.5 46.5H16.25V46.75H16.5V46.5ZM16.5 43.5H16.75V43.25H16.5V43.5ZM10.5 43.5H10.25V43.75H10.5V43.5ZM10.5 40.5H10.75V40.25H10.5V40.5ZM7.5 40.5H7.25V40.75H7.5V40.5ZM7.5 37.5H7.75V37.25H7.5V37.5ZM4.5 37.5H4.25V37.75H4.5V37.5ZM4.5 31.5H4.75V31.25H4.5V31.5ZM1.5 31.5H1.25V31.75H1.5V31.5ZM1.5 16.5V16.25H1.25V16.5H1.5ZM4.5 16.5V16.75H4.75V16.5H4.5ZM4.5 10.5V10.25H4.25V10.5H4.5ZM7.5 10.5V10.75H7.75V10.5H7.5ZM7.5 7.5V7.25H7.25V7.5H7.5ZM10.5 7.5V7.75H10.75V7.5H10.5ZM10.5 4.5V4.25H10.25V4.5H10.5ZM16.5 4.5V4.75H16.75V4.5H16.5ZM19.5 1.25H16.5V1.75H19.5V1.25ZM22.5 1.25H19.5V1.75H22.5V1.25ZM25.5 1.25H22.5V1.75H25.5V1.25ZM28.5 1.25H25.5V1.75H28.5V1.25ZM31.5 1.25H28.5V1.75H31.5V1.25ZM31.75 4.5V1.5H31.25V4.5H31.75ZM34.5 4.25H31.5V4.75H34.5V4.25ZM37.5 4.25H34.5V4.75H37.5V4.25ZM37.75 7.5V4.5H37.25V7.5H37.75ZM40.5 7.25H37.5V7.75H40.5V7.25ZM40.75 10.5V7.5H40.25V10.5H40.75ZM43.5 10.25H40.5V10.75H43.5V10.25ZM43.75 13.5V10.5H43.25V13.5H43.75ZM43.75 16.5V13.5H43.25V16.5H43.75ZM46.5 16.25H43.5V16.75H46.5V16.25ZM46.75 19.5V16.5H46.25V19.5H46.75ZM46.75 22.5V19.5H46.25V22.5H46.75ZM46.75 25.5V22.5H46.25V25.5H46.75ZM46.75 28.5V25.5H46.25V28.5H46.75ZM46.75 31.5V28.5H46.25V31.5H46.75ZM43.5 31.75H46.5V31.25H43.5V31.75ZM43.75 34.5V31.5H43.25V34.5H43.75ZM43.75 37.5V34.5H43.25V37.5H43.75ZM40.5 37.75H43.5V37.25H40.5V37.75ZM40.75 40.5V37.5H40.25V40.5H40.75ZM37.5 40.75H40.5V40.25H37.5V40.75ZM37.75 43.5V40.5H37.25V43.5H37.75ZM34.5 43.75H37.5V43.25H34.5V43.75ZM31.5 43.75H34.5V43.25H31.5V43.75ZM31.75 46.5V43.5H31.25V46.5H31.75ZM28.5 46.75H31.5V46.25H28.5V46.75ZM25.5 46.75H28.5V46.25H25.5V46.75ZM22.5 46.75H25.5V46.25H22.5V46.75ZM19.5 46.75H22.5V46.25H19.5V46.75ZM16.5 46.75H19.5V46.25H16.5V46.75ZM16.25 43.5V46.5H16.75V43.5H16.25ZM13.5 43.75H16.5V43.25H13.5V43.75ZM10.5 43.75H13.5V43.25H10.5V43.75ZM10.25 40.5V43.5H10.75V40.5H10.25ZM7.5 40.75H10.5V40.25H7.5V40.75ZM7.25 37.5V40.5H7.75V37.5H7.25ZM4.5 37.75H7.5V37.25H4.5V37.75ZM4.25 34.5V37.5H4.75V34.5H4.25ZM4.25 31.5V34.5H4.75V31.5H4.25ZM1.5 31.75H4.5V31.25H1.5V31.75ZM1.25 28.5V31.5H1.75V28.5H1.25ZM1.25 25.5V28.5H1.75V25.5H1.25ZM1.25 22.5V25.5H1.75V22.5H1.25ZM1.25 19.5V22.5H1.75V19.5H1.25ZM1.25 16.5V19.5H1.75V16.5H1.25ZM4.5 16.25H1.5V16.75H4.5V16.25ZM4.25 13.5V16.5H4.75V13.5H4.25ZM4.25 10.5V13.5H4.75V10.5H4.25ZM7.5 10.25H4.5V10.75H7.5V10.25ZM7.25 7.5V10.5H7.75V7.5H7.25ZM10.5 7.25H7.5V7.75H10.5V7.25ZM10.25 4.5V7.5H10.75V4.5H10.25ZM13.5 4.25H10.5V4.75H13.5V4.25ZM16.5 4.25H13.5V4.75H16.5V4.25ZM16.25 1.5V4.5H16.75V1.5H16.25Z" fill="#2B100D" mask="url(#path-1-outside-1)"/>
<g clip-path="url(#clip0)">
<g clip-path="url(#clip1)">
<path d="M30.6541 40.0162C31.0683 40.0162 31.4041 39.6804 31.4041 39.2662C31.4041 38.852 31.0683 38.5162 30.6541 38.5162C30.2398 38.5162 29.9041 38.852 29.9041 39.2662C29.9041 39.6804 30.2398 40.0162 30.6541 40.0162Z" fill="#2B100D"/>
<path d="M30.6541 37.6936C31.0683 37.6936 31.4041 37.3578 31.4041 36.9436C31.4041 36.5294 31.0683 36.1936 30.6541 36.1936C30.2398 36.1936 29.9041 36.5294 29.9041 36.9436C29.9041 37.3578 30.2398 37.6936 30.6541 37.6936Z" fill="#2B100D"/>
<path d="M28.3499 37.6936C28.7642 37.6936 29.0999 37.3578 29.0999 36.9436C29.0999 36.5294 28.7642 36.1936 28.3499 36.1936C27.9357 36.1936 27.5999 36.5294 27.5999 36.9436C27.5999 37.3578 27.9357 37.6936 28.3499 37.6936Z" fill="#2B100D"/>
<path d="M37.566 35.3711C37.9802 35.3711 38.316 35.0353 38.316 34.6211C38.316 34.2069 37.9802 33.8711 37.566 33.8711C37.1518 33.8711 36.816 34.2069 36.816 34.6211C36.816 35.0353 37.1518 35.3711 37.566 35.3711Z" fill="#2B100D"/>
<path d="M30.6541 35.3711C31.0683 35.3711 31.4041 35.0353 31.4041 34.6211C31.4041 34.2069 31.0683 33.8711 30.6541 33.8711C30.2398 33.8711 29.9041 34.2069 29.9041 34.6211C29.9041 35.0353 30.2398 35.3711 30.6541 35.3711Z" fill="#2B100D"/>
<path d="M28.3499 35.3711C28.7642 35.3711 29.0999 35.0353 29.0999 34.6211C29.0999 34.2069 28.7642 33.8711 28.3499 33.8711C27.9357 33.8711 27.5999 34.2069 27.5999 34.6211C27.5999 35.0353 27.9357 35.3711 28.3499 35.3711Z" fill="#2B100D"/>
<path d="M26.046 35.3711C26.4602 35.3711 26.796 35.0353 26.796 34.6211C26.796 34.2069 26.4602 33.8711 26.046 33.8711C25.6318 33.8711 25.296 34.2069 25.296 34.6211C25.296 35.0353 25.6318 35.3711 26.046 35.3711Z" fill="#2B100D"/>
<path d="M9.918 35.3711C10.3322 35.3711 10.668 35.0353 10.668 34.6211C10.668 34.2069 10.3322 33.8711 9.918 33.8711C9.50379 33.8711 9.168 34.2069 9.168 34.6211C9.168 35.0353 9.50379 35.3711 9.918 35.3711Z" fill="#2B100D"/>
<path d="M37.566 33.0483C37.9802 33.0483 38.316 32.7126 38.316 32.2983C38.316 31.8841 37.9802 31.5483 37.566 31.5483C37.1518 31.5483 36.816 31.8841 36.816 32.2983C36.816 32.7126 37.1518 33.0483 37.566 33.0483Z" fill="#2B100D"/>
<path d="M35.262 33.0483C35.6762 33.0483 36.012 32.7126 36.012 32.2983C36.012 31.8841 35.6762 31.5483 35.262 31.5483C34.8478 31.5483 34.512 31.8841 34.512 32.2983C34.512 32.7126 34.8478 33.0483 35.262 33.0483Z" fill="#2B100D"/>
<path d="M30.6541 33.0483C31.0683 33.0483 31.4041 32.7126 31.4041 32.2983C31.4041 31.8841 31.0683 31.5483 30.6541 31.5483C30.2398 31.5483 29.9041 31.8841 29.9041 32.2983C29.9041 32.7126 30.2398 33.0483 30.6541 33.0483Z" fill="#2B100D"/>
<path d="M28.3499 33.0483C28.7642 33.0483 29.0999 32.7126 29.0999 32.2983C29.0999 31.8841 28.7642 31.5483 28.3499 31.5483C27.9357 31.5483 27.5999 31.8841 27.5999 32.2983C27.5999 32.7126 27.9357 33.0483 28.3499 33.0483Z" fill="#2B100D"/>
<path d="M26.046 33.0483C26.4602 33.0483 26.796 32.7126 26.796 32.2983C26.796 31.8841 26.4602 31.5483 26.046 31.5483C25.6318 31.5483 25.296 31.8841 25.296 32.2983C25.296 32.7126 25.6318 33.0483 26.046 33.0483Z" fill="#2B100D"/>
<path d="M9.918 33.0483C10.3322 33.0483 10.668 32.7126 10.668 32.2983C10.668 31.8841 10.3322 31.5483 9.918 31.5483C9.50379 31.5483 9.168 31.8841 9.168 32.2983C9.168 32.7126 9.50379 33.0483 9.918 33.0483Z" fill="#2B100D"/>
<path d="M39.87 30.7258C40.2842 30.7258 40.62 30.39 40.62 29.9758C40.62 29.5616 40.2842 29.2258 39.87 29.2258C39.4558 29.2258 39.12 29.5616 39.12 29.9758C39.12 30.39 39.4558 30.7258 39.87 30.7258Z" fill="#2B100D"/>
<path d="M37.566 30.7258C37.9802 30.7258 38.316 30.39 38.316 29.9758C38.316 29.5616 37.9802 29.2258 37.566 29.2258C37.1518 29.2258 36.816 29.5616 36.816 29.9758C36.816 30.39 37.1518 30.7258 37.566 30.7258Z" fill="#2B100D"/>
<path d="M35.262 30.7258C35.6762 30.7258 36.012 30.39 36.012 29.9758C36.012 29.5616 35.6762 29.2258 35.262 29.2258C34.8478 29.2258 34.512 29.5616 34.512 29.9758C34.512 30.39 34.8478 30.7258 35.262 30.7258Z" fill="#2B100D"/>
<path d="M32.958 30.7258C33.3722 30.7258 33.708 30.39 33.708 29.9758C33.708 29.5616 33.3722 29.2258 32.958 29.2258C32.5438 29.2258 32.208 29.5616 32.208 29.9758C32.208 30.39 32.5438 30.7258 32.958 30.7258Z" fill="#2B100D"/>
<path d="M30.6541 30.7258C31.0683 30.7258 31.4041 30.39 31.4041 29.9758C31.4041 29.5616 31.0683 29.2258 30.6541 29.2258C30.2398 29.2258 29.9041 29.5616 29.9041 29.9758C29.9041 30.39 30.2398 30.7258 30.6541 30.7258Z" fill="#2B100D"/>
<path d="M28.3499 30.7258C28.7642 30.7258 29.0999 30.39 29.0999 29.9758C29.0999 29.5616 28.7642 29.2258 28.3499 29.2258C27.9357 29.2258 27.5999 29.5616 27.5999 29.9758C27.5999 30.39 27.9357 30.7258 28.3499 30.7258Z" fill="#2B100D"/>
<path d="M26.046 30.7258C26.4602 30.7258 26.796 30.39 26.796 29.9758C26.796 29.5616 26.4602 29.2258 26.046 29.2258C25.6318 29.2258 25.296 29.5616 25.296 29.9758C25.296 30.39 25.6318 30.7258 26.046 30.7258Z" fill="#2B100D"/>
<path d="M23.742 30.7258C24.1562 30.7258 24.492 30.39 24.492 29.9758C24.492 29.5616 24.1562 29.2258 23.742 29.2258C23.3278 29.2258 22.992 29.5616 22.992 29.9758C22.992 30.39 23.3278 30.7258 23.742 30.7258Z" fill="#2B100D"/>
<path d="M12.2219 30.7258C12.6361 30.7258 12.9719 30.39 12.9719 29.9758C12.9719 29.5616 12.6361 29.2258 12.2219 29.2258C11.8077 29.2258 11.4719 29.5616 11.4719 29.9758C11.4719 30.39 11.8077 30.7258 12.2219 30.7258Z" fill="#2B100D"/>
<path d="M9.918 30.7258C10.3322 30.7258 10.668 30.39 10.668 29.9758C10.668 29.5616 10.3322 29.2258 9.918 29.2258C9.50379 29.2258 9.168 29.5616 9.168 29.9758C9.168 30.39 9.50379 30.7258 9.918 30.7258Z" fill="#2B100D"/>
<path d="M7.61398 30.7258C8.0282 30.7258 8.36398 30.39 8.36398 29.9758C8.36398 29.5616 8.0282 29.2258 7.61398 29.2258C7.19977 29.2258 6.86398 29.5616 6.86398 29.9758C6.86398 30.39 7.19977 30.7258 7.61398 30.7258Z" fill="#2B100D"/>
<path d="M39.87 28.4033C40.2842 28.4033 40.62 28.0675 40.62 27.6533C40.62 27.2391 40.2842 26.9033 39.87 26.9033C39.4558 26.9033 39.12 27.2391 39.12 27.6533C39.12 28.0675 39.4558 28.4033 39.87 28.4033Z" fill="#2B100D"/>
<path d="M37.566 28.4033C37.9802 28.4033 38.316 28.0675 38.316 27.6533C38.316 27.2391 37.9802 26.9033 37.566 26.9033C37.1518 26.9033 36.816 27.2391 36.816 27.6533C36.816 28.0675 37.1518 28.4033 37.566 28.4033Z" fill="#2B100D"/>
<path d="M35.262 28.4033C35.6762 28.4033 36.012 28.0675 36.012 27.6533C36.012 27.2391 35.6762 26.9033 35.262 26.9033C34.8478 26.9033 34.512 27.2391 34.512 27.6533C34.512 28.0675 34.8478 28.4033 35.262 28.4033Z" fill="#2B100D"/>
<path d="M32.958 28.4033C33.3722 28.4033 33.708 28.0675 33.708 27.6533C33.708 27.2391 33.3722 26.9033 32.958 26.9033C32.5438 26.9033 32.208 27.2391 32.208 27.6533C32.208 28.0675 32.5438 28.4033 32.958 28.4033Z" fill="#2B100D"/>
<path d="M30.6541 28.4033C31.0683 28.4033 31.4041 28.0675 31.4041 27.6533C31.4041 27.2391 31.0683 26.9033 30.6541 26.9033C30.2398 26.9033 29.9041 27.2391 29.9041 27.6533C29.9041 28.0675 30.2398 28.4033 30.6541 28.4033Z" fill="#2B100D"/>
<path d="M28.3499 28.4033C28.7642 28.4033 29.0999 28.0675 29.0999 27.6533C29.0999 27.2391 28.7642 26.9033 28.3499 26.9033C27.9357 26.9033 27.5999 27.2391 27.5999 27.6533C27.5999 28.0675 27.9357 28.4033 28.3499 28.4033Z" fill="#2B100D"/>
<path d="M26.046 28.4033C26.4602 28.4033 26.796 28.0675 26.796 27.6533C26.796 27.2391 26.4602 26.9033 26.046 26.9033C25.6318 26.9033 25.296 27.2391 25.296 27.6533C25.296 28.0675 25.6318 28.4033 26.046 28.4033Z" fill="#2B100D"/>
<path d="M23.742 28.4033C24.1562 28.4033 24.492 28.0675 24.492 27.6533C24.492 27.2391 24.1562 26.9033 23.742 26.9033C23.3278 26.9033 22.992 27.2391 22.992 27.6533C22.992 28.0675 23.3278 28.4033 23.742 28.4033Z" fill="#2B100D"/>
<path d="M21.438 28.4033C21.8522 28.4033 22.188 28.0675 22.188 27.6533C22.188 27.2391 21.8522 26.9033 21.438 26.9033C21.0238 26.9033 20.688 27.2391 20.688 27.6533C20.688 28.0675 21.0238 28.4033 21.438 28.4033Z" fill="#2B100D"/>
<path d="M16.83 28.4033C17.2442 28.4033 17.58 28.0675 17.58 27.6533C17.58 27.2391 17.2442 26.9033 16.83 26.9033C16.4157 26.9033 16.08 27.2391 16.08 27.6533C16.08 28.0675 16.4157 28.4033 16.83 28.4033Z" fill="#2B100D"/>
<path d="M14.5259 28.4033C14.9402 28.4033 15.2759 28.0675 15.2759 27.6533C15.2759 27.2391 14.9402 26.9033 14.5259 26.9033C14.1117 26.9033 13.7759 27.2391 13.7759 27.6533C13.7759 28.0675 14.1117 28.4033 14.5259 28.4033Z" fill="#2B100D"/>
<path d="M12.2219 28.4033C12.6361 28.4033 12.9719 28.0675 12.9719 27.6533C12.9719 27.2391 12.6361 26.9033 12.2219 26.9033C11.8077 26.9033 11.4719 27.2391 11.4719 27.6533C11.4719 28.0675 11.8077 28.4033 12.2219 28.4033Z" fill="#2B100D"/>
<path d="M9.918 28.4033C10.3322 28.4033 10.668 28.0675 10.668 27.6533C10.668 27.2391 10.3322 26.9033 9.918 26.9033C9.50379 26.9033 9.168 27.2391 9.168 27.6533C9.168 28.0675 9.50379 28.4033 9.918 28.4033Z" fill="#2B100D"/>
<path d="M7.61398 28.4033C8.0282 28.4033 8.36398 28.0675 8.36398 27.6533C8.36398 27.2391 8.0282 26.9033 7.61398 26.9033C7.19977 26.9033 6.86398 27.2391 6.86398 27.6533C6.86398 28.0675 7.19977 28.4033 7.61398 28.4033Z" fill="#2B100D"/>
<path d="M39.87 26.0806C40.2842 26.0806 40.62 25.7448 40.62 25.3306C40.62 24.9164 40.2842 24.5806 39.87 24.5806C39.4558 24.5806 39.12 24.9164 39.12 25.3306C39.12 25.7448 39.4558 26.0806 39.87 26.0806Z" fill="#2B100D"/>
<path d="M37.566 26.0806C37.9802 26.0806 38.316 25.7448 38.316 25.3306C38.316 24.9164 37.9802 24.5806 37.566 24.5806C37.1518 24.5806 36.816 24.9164 36.816 25.3306C36.816 25.7448 37.1518 26.0806 37.566 26.0806Z" fill="#2B100D"/>
<path d="M35.262 26.0806C35.6762 26.0806 36.012 25.7448 36.012 25.3306C36.012 24.9164 35.6762 24.5806 35.262 24.5806C34.8478 24.5806 34.512 24.9164 34.512 25.3306C34.512 25.7448 34.8478 26.0806 35.262 26.0806Z" fill="#2B100D"/>
<path d="M32.958 26.0806C33.3722 26.0806 33.708 25.7448 33.708 25.3306C33.708 24.9164 33.3722 24.5806 32.958 24.5806C32.5438 24.5806 32.208 24.9164 32.208 25.3306C32.208 25.7448 32.5438 26.0806 32.958 26.0806Z" fill="#2B100D"/>
<path d="M30.6541 26.0806C31.0683 26.0806 31.4041 25.7448 31.4041 25.3306C31.4041 24.9164 31.0683 24.5806 30.6541 24.5806C30.2398 24.5806 29.9041 24.9164 29.9041 25.3306C29.9041 25.7448 30.2398 26.0806 30.6541 26.0806Z" fill="#2B100D"/>
<path d="M28.3499 26.0806C28.7642 26.0806 29.0999 25.7448 29.0999 25.3306C29.0999 24.9164 28.7642 24.5806 28.3499 24.5806C27.9357 24.5806 27.5999 24.9164 27.5999 25.3306C27.5999 25.7448 27.9357 26.0806 28.3499 26.0806Z" fill="#2B100D"/>
<path d="M26.046 26.0806C26.4602 26.0806 26.796 25.7448 26.796 25.3306C26.796 24.9164 26.4602 24.5806 26.046 24.5806C25.6318 24.5806 25.296 24.9164 25.296 25.3306C25.296 25.7448 25.6318 26.0806 26.046 26.0806Z" fill="#2B100D"/>
<path d="M23.742 26.0806C24.1562 26.0806 24.492 25.7448 24.492 25.3306C24.492 24.9164 24.1562 24.5806 23.742 24.5806C23.3278 24.5806 22.992 24.9164 22.992 25.3306C22.992 25.7448 23.3278 26.0806 23.742 26.0806Z" fill="#2B100D"/>
<path d="M21.438 26.0806C21.8522 26.0806 22.188 25.7448 22.188 25.3306C22.188 24.9164 21.8522 24.5806 21.438 24.5806C21.0238 24.5806 20.688 24.9164 20.688 25.3306C20.688 25.7448 21.0238 26.0806 21.438 26.0806Z" fill="#2B100D"/>
<path d="M19.134 26.0806C19.5482 26.0806 19.884 25.7448 19.884 25.3306C19.884 24.9164 19.5482 24.5806 19.134 24.5806C18.7198 24.5806 18.384 24.9164 18.384 25.3306C18.384 25.7448 18.7198 26.0806 19.134 26.0806Z" fill="#2B100D"/>
<path d="M16.83 26.0806C17.2442 26.0806 17.58 25.7448 17.58 25.3306C17.58 24.9164 17.2442 24.5806 16.83 24.5806C16.4157 24.5806 16.08 24.9164 16.08 25.3306C16.08 25.7448 16.4157 26.0806 16.83 26.0806Z" fill="#2B100D"/>
<path d="M14.5259 26.0806C14.9402 26.0806 15.2759 25.7448 15.2759 25.3306C15.2759 24.9164 14.9402 24.5806 14.5259 24.5806C14.1117 24.5806 13.7759 24.9164 13.7759 25.3306C13.7759 25.7448 14.1117 26.0806 14.5259 26.0806Z" fill="#2B100D"/>
<path d="M12.2219 26.0806C12.6361 26.0806 12.9719 25.7448 12.9719 25.3306C12.9719 24.9164 12.6361 24.5806 12.2219 24.5806C11.8077 24.5806 11.4719 24.9164 11.4719 25.3306C11.4719 25.7448 11.8077 26.0806 12.2219 26.0806Z" fill="#2B100D"/>
<path d="M9.918 26.0806C10.3322 26.0806 10.668 25.7448 10.668 25.3306C10.668 24.9164 10.3322 24.5806 9.918 24.5806C9.50379 24.5806 9.168 24.9164 9.168 25.3306C9.168 25.7448 9.50379 26.0806 9.918 26.0806Z" fill="#2B100D"/>
<path d="M7.61398 26.0806C8.0282 26.0806 8.36398 25.7448 8.36398 25.3306C8.36398 24.9164 8.0282 24.5806 7.61398 24.5806C7.19977 24.5806 6.86398 24.9164 6.86398 25.3306C6.86398 25.7448 7.19977 26.0806 7.61398 26.0806Z" fill="#2B100D"/>
<path d="M39.87 23.7581C40.2842 23.7581 40.62 23.4223 40.62 23.0081C40.62 22.5938 40.2842 22.2581 39.87 22.2581C39.4558 22.2581 39.12 22.5938 39.12 23.0081C39.12 23.4223 39.4558 23.7581 39.87 23.7581Z" fill="#2B100D"/>
<path d="M37.566 23.7581C37.9802 23.7581 38.316 23.4223 38.316 23.0081C38.316 22.5938 37.9802 22.2581 37.566 22.2581C37.1518 22.2581 36.816 22.5938 36.816 23.0081C36.816 23.4223 37.1518 23.7581 37.566 23.7581Z" fill="#2B100D"/>
<path d="M35.262 23.7581C35.6762 23.7581 36.012 23.4223 36.012 23.0081C36.012 22.5938 35.6762 22.2581 35.262 22.2581C34.8478 22.2581 34.512 22.5938 34.512 23.0081C34.512 23.4223 34.8478 23.7581 35.262 23.7581Z" fill="#2B100D"/>
<path d="M32.958 23.7581C33.3722 23.7581 33.708 23.4223 33.708 23.0081C33.708 22.5938 33.3722 22.2581 32.958 22.2581C32.5438 22.2581 32.208 22.5938 32.208 23.0081C32.208 23.4223 32.5438 23.7581 32.958 23.7581Z" fill="#2B100D"/>
<path d="M30.6541 23.7581C31.0683 23.7581 31.4041 23.4223 31.4041 23.0081C31.4041 22.5938 31.0683 22.2581 30.6541 22.2581C30.2398 22.2581 29.9041 22.5938 29.9041 23.0081C29.9041 23.4223 30.2398 23.7581 30.6541 23.7581Z" fill="#2B100D"/>
<path d="M28.3499 23.7581C28.7642 23.7581 29.0999 23.4223 29.0999 23.0081C29.0999 22.5938 28.7642 22.2581 28.3499 22.2581C27.9357 22.2581 27.5999 22.5938 27.5999 23.0081C27.5999 23.4223 27.9357 23.7581 28.3499 23.7581Z" fill="#2B100D"/>
<path d="M26.046 23.7581C26.4602 23.7581 26.796 23.4223 26.796 23.0081C26.796 22.5938 26.4602 22.2581 26.046 22.2581C25.6318 22.2581 25.296 22.5938 25.296 23.0081C25.296 23.4223 25.6318 23.7581 26.046 23.7581Z" fill="#2B100D"/>
<path d="M23.742 23.7581C24.1562 23.7581 24.492 23.4223 24.492 23.0081C24.492 22.5938 24.1562 22.2581 23.742 22.2581C23.3278 22.2581 22.992 22.5938 22.992 23.0081C22.992 23.4223 23.3278 23.7581 23.742 23.7581Z" fill="#2B100D"/>
<path d="M21.438 23.7581C21.8522 23.7581 22.188 23.4223 22.188 23.0081C22.188 22.5938 21.8522 22.2581 21.438 22.2581C21.0238 22.2581 20.688 22.5938 20.688 23.0081C20.688 23.4223 21.0238 23.7581 21.438 23.7581Z" fill="#2B100D"/>
<path d="M19.134 23.7581C19.5482 23.7581 19.884 23.4223 19.884 23.0081C19.884 22.5938 19.5482 22.2581 19.134 22.2581C18.7198 22.2581 18.384 22.5938 18.384 23.0081C18.384 23.4223 18.7198 23.7581 19.134 23.7581Z" fill="#2B100D"/>
<path d="M16.83 23.7581C17.2442 23.7581 17.58 23.4223 17.58 23.0081C17.58 22.5938 17.2442 22.2581 16.83 22.2581C16.4157 22.2581 16.08 22.5938 16.08 23.0081C16.08 23.4223 16.4157 23.7581 16.83 23.7581Z" fill="#2B100D"/>
<path d="M14.5259 23.7581C14.9402 23.7581 15.2759 23.4223 15.2759 23.0081C15.2759 22.5938 14.9402 22.2581 14.5259 22.2581C14.1117 22.2581 13.7759 22.5938 13.7759 23.0081C13.7759 23.4223 14.1117 23.7581 14.5259 23.7581Z" fill="#2B100D"/>
<path d="M12.2219 23.7581C12.6361 23.7581 12.9719 23.4223 12.9719 23.0081C12.9719 22.5938 12.6361 22.2581 12.2219 22.2581C11.8077 22.2581 11.4719 22.5938 11.4719 23.0081C11.4719 23.4223 11.8077 23.7581 12.2219 23.7581Z" fill="#2B100D"/>
<path d="M9.918 23.7581C10.3322 23.7581 10.668 23.4223 10.668 23.0081C10.668 22.5938 10.3322 22.2581 9.918 22.2581C9.50379 22.2581 9.168 22.5938 9.168 23.0081C9.168 23.4223 9.50379 23.7581 9.918 23.7581Z" fill="#2B100D"/>
<path d="M7.61398 23.7581C8.0282 23.7581 8.36398 23.4223 8.36398 23.0081C8.36398 22.5938 8.0282 22.2581 7.61398 22.2581C7.19977 22.2581 6.86398 22.5938 6.86398 23.0081C6.86398 23.4223 7.19977 23.7581 7.61398 23.7581Z" fill="#2B100D"/>
<path d="M39.87 21.4354C40.2842 21.4354 40.62 21.0996 40.62 20.6854C40.62 20.2712 40.2842 19.9354 39.87 19.9354C39.4558 19.9354 39.12 20.2712 39.12 20.6854C39.12 21.0996 39.4558 21.4354 39.87 21.4354Z" fill="#2B100D"/>
<path d="M37.566 21.4354C37.9802 21.4354 38.316 21.0996 38.316 20.6854C38.316 20.2712 37.9802 19.9354 37.566 19.9354C37.1518 19.9354 36.816 20.2712 36.816 20.6854C36.816 21.0996 37.1518 21.4354 37.566 21.4354Z" fill="#2B100D"/>
<path d="M35.262 21.4354C35.6762 21.4354 36.012 21.0996 36.012 20.6854C36.012 20.2712 35.6762 19.9354 35.262 19.9354C34.8478 19.9354 34.512 20.2712 34.512 20.6854C34.512 21.0996 34.8478 21.4354 35.262 21.4354Z" fill="#2B100D"/>
<path d="M32.958 21.4354C33.3722 21.4354 33.708 21.0996 33.708 20.6854C33.708 20.2712 33.3722 19.9354 32.958 19.9354C32.5438 19.9354 32.208 20.2712 32.208 20.6854C32.208 21.0996 32.5438 21.4354 32.958 21.4354Z" fill="#2B100D"/>
<path d="M30.6541 21.4354C31.0683 21.4354 31.4041 21.0996 31.4041 20.6854C31.4041 20.2712 31.0683 19.9354 30.6541 19.9354C30.2398 19.9354 29.9041 20.2712 29.9041 20.6854C29.9041 21.0996 30.2398 21.4354 30.6541 21.4354Z" fill="#2B100D"/>
<path d="M28.3499 21.4354C28.7642 21.4354 29.0999 21.0996 29.0999 20.6854C29.0999 20.2712 28.7642 19.9354 28.3499 19.9354C27.9357 19.9354 27.5999 20.2712 27.5999 20.6854C27.5999 21.0996 27.9357 21.4354 28.3499 21.4354Z" fill="#2B100D"/>
<path d="M26.046 21.4354C26.4602 21.4354 26.796 21.0996 26.796 20.6854C26.796 20.2712 26.4602 19.9354 26.046 19.9354C25.6318 19.9354 25.296 20.2712 25.296 20.6854C25.296 21.0996 25.6318 21.4354 26.046 21.4354Z" fill="#2B100D"/>
<path d="M23.742 21.4354C24.1562 21.4354 24.492 21.0996 24.492 20.6854C24.492 20.2712 24.1562 19.9354 23.742 19.9354C23.3278 19.9354 22.992 20.2712 22.992 20.6854C22.992 21.0996 23.3278 21.4354 23.742 21.4354Z" fill="#2B100D"/>
<path d="M21.438 21.4354C21.8522 21.4354 22.188 21.0996 22.188 20.6854C22.188 20.2712 21.8522 19.9354 21.438 19.9354C21.0238 19.9354 20.688 20.2712 20.688 20.6854C20.688 21.0996 21.0238 21.4354 21.438 21.4354Z" fill="#2B100D"/>
<path d="M16.83 21.4354C17.2442 21.4354 17.58 21.0996 17.58 20.6854C17.58 20.2712 17.2442 19.9354 16.83 19.9354C16.4157 19.9354 16.08 20.2712 16.08 20.6854C16.08 21.0996 16.4157 21.4354 16.83 21.4354Z" fill="#2B100D"/>
<path d="M14.5259 21.4354C14.9402 21.4354 15.2759 21.0996 15.2759 20.6854C15.2759 20.2712 14.9402 19.9354 14.5259 19.9354C14.1117 19.9354 13.7759 20.2712 13.7759 20.6854C13.7759 21.0996 14.1117 21.4354 14.5259 21.4354Z" fill="#2B100D"/>
<path d="M12.2219 21.4354C12.6361 21.4354 12.9719 21.0996 12.9719 20.6854C12.9719 20.2712 12.6361 19.9354 12.2219 19.9354C11.8077 19.9354 11.4719 20.2712 11.4719 20.6854C11.4719 21.0996 11.8077 21.4354 12.2219 21.4354Z" fill="#2B100D"/>
<path d="M9.918 21.4354C10.3322 21.4354 10.668 21.0996 10.668 20.6854C10.668 20.2712 10.3322 19.9354 9.918 19.9354C9.50379 19.9354 9.168 20.2712 9.168 20.6854C9.168 21.0996 9.50379 21.4354 9.918 21.4354Z" fill="#2B100D"/>
<path d="M7.61398 21.4354C8.0282 21.4354 8.36398 21.0996 8.36398 20.6854C8.36398 20.2712 8.0282 19.9354 7.61398 19.9354C7.19977 19.9354 6.86398 20.2712 6.86398 20.6854C6.86398 21.0996 7.19977 21.4354 7.61398 21.4354Z" fill="#2B100D"/>
<path d="M39.87 19.1129C40.2842 19.1129 40.62 18.7771 40.62 18.3629C40.62 17.9487 40.2842 17.6129 39.87 17.6129C39.4558 17.6129 39.12 17.9487 39.12 18.3629C39.12 18.7771 39.4558 19.1129 39.87 19.1129Z" fill="#2B100D"/>
<path d="M37.566 19.1129C37.9802 19.1129 38.316 18.7771 38.316 18.3629C38.316 17.9487 37.9802 17.6129 37.566 17.6129C37.1518 17.6129 36.816 17.9487 36.816 18.3629C36.816 18.7771 37.1518 19.1129 37.566 19.1129Z" fill="#2B100D"/>
<path d="M35.262 19.1129C35.6762 19.1129 36.012 18.7771 36.012 18.3629C36.012 17.9487 35.6762 17.6129 35.262 17.6129C34.8478 17.6129 34.512 17.9487 34.512 18.3629C34.512 18.7771 34.8478 19.1129 35.262 19.1129Z" fill="#2B100D"/>
<path d="M32.958 19.1129C33.3722 19.1129 33.708 18.7771 33.708 18.3629C33.708 17.9487 33.3722 17.6129 32.958 17.6129C32.5438 17.6129 32.208 17.9487 32.208 18.3629C32.208 18.7771 32.5438 19.1129 32.958 19.1129Z" fill="#2B100D"/>
<path d="M30.6541 19.1129C31.0683 19.1129 31.4041 18.7771 31.4041 18.3629C31.4041 17.9487 31.0683 17.6129 30.6541 17.6129C30.2398 17.6129 29.9041 17.9487 29.9041 18.3629C29.9041 18.7771 30.2398 19.1129 30.6541 19.1129Z" fill="#2B100D"/>
<path d="M28.3499 19.1129C28.7642 19.1129 29.0999 18.7771 29.0999 18.3629C29.0999 17.9487 28.7642 17.6129 28.3499 17.6129C27.9357 17.6129 27.5999 17.9487 27.5999 18.3629C27.5999 18.7771 27.9357 19.1129 28.3499 19.1129Z" fill="#2B100D"/>
<path d="M26.046 19.1129C26.4602 19.1129 26.796 18.7771 26.796 18.3629C26.796 17.9487 26.4602 17.6129 26.046 17.6129C25.6318 17.6129 25.296 17.9487 25.296 18.3629C25.296 18.7771 25.6318 19.1129 26.046 19.1129Z" fill="#2B100D"/>
<path d="M23.742 19.1129C24.1562 19.1129 24.492 18.7771 24.492 18.3629C24.492 17.9487 24.1562 17.6129 23.742 17.6129C23.3278 17.6129 22.992 17.9487 22.992 18.3629C22.992 18.7771 23.3278 19.1129 23.742 19.1129Z" fill="#2B100D"/>
<path d="M12.2219 19.1129C12.6361 19.1129 12.9719 18.7771 12.9719 18.3629C12.9719 17.9487 12.6361 17.6129 12.2219 17.6129C11.8077 17.6129 11.4719 17.9487 11.4719 18.3629C11.4719 18.7771 11.8077 19.1129 12.2219 19.1129Z" fill="#2B100D"/>
<path d="M9.918 19.1129C10.3322 19.1129 10.668 18.7771 10.668 18.3629C10.668 17.9487 10.3322 17.6129 9.918 17.6129C9.50379 17.6129 9.168 17.9487 9.168 18.3629C9.168 18.7771 9.50379 19.1129 9.918 19.1129Z" fill="#2B100D"/>
<path d="M7.61398 19.1129C8.0282 19.1129 8.36398 18.7771 8.36398 18.3629C8.36398 17.9487 8.0282 17.6129 7.61398 17.6129C7.19977 17.6129 6.86398 17.9487 6.86398 18.3629C6.86398 18.7771 7.19977 19.1129 7.61398 19.1129Z" fill="#2B100D"/>
<path d="M37.566 16.7904C37.9802 16.7904 38.316 16.4546 38.316 16.0404C38.316 15.6262 37.9802 15.2904 37.566 15.2904C37.1518 15.2904 36.816 15.6262 36.816 16.0404C36.816 16.4546 37.1518 16.7904 37.566 16.7904Z" fill="#2B100D"/>
<path d="M35.262 16.7904C35.6762 16.7904 36.012 16.4546 36.012 16.0404C36.012 15.6262 35.6762 15.2904 35.262 15.2904C34.8478 15.2904 34.512 15.6262 34.512 16.0404C34.512 16.4546 34.8478 16.7904 35.262 16.7904Z" fill="#2B100D"/>
<path d="M30.6541 16.7904C31.0683 16.7904 31.4041 16.4546 31.4041 16.0404C31.4041 15.6262 31.0683 15.2904 30.6541 15.2904C30.2398 15.2904 29.9041 15.6262 29.9041 16.0404C29.9041 16.4546 30.2398 16.7904 30.6541 16.7904Z" fill="#2B100D"/>
<path d="M28.3499 16.7904C28.7642 16.7904 29.0999 16.4546 29.0999 16.0404C29.0999 15.6262 28.7642 15.2904 28.3499 15.2904C27.9357 15.2904 27.5999 15.6262 27.5999 16.0404C27.5999 16.4546 27.9357 16.7904 28.3499 16.7904Z" fill="#2B100D"/>
<path d="M26.046 16.7904C26.4602 16.7904 26.796 16.4546 26.796 16.0404C26.796 15.6262 26.4602 15.2904 26.046 15.2904C25.6318 15.2904 25.296 15.6262 25.296 16.0404C25.296 16.4546 25.6318 16.7904 26.046 16.7904Z" fill="#2B100D"/>
<path d="M9.918 16.7904C10.3322 16.7904 10.668 16.4546 10.668 16.0404C10.668 15.6262 10.3322 15.2904 9.918 15.2904C9.50379 15.2904 9.168 15.6262 9.168 16.0404C9.168 16.4546 9.50379 16.7904 9.918 16.7904Z" fill="#2B100D"/>
<path d="M37.566 14.4679C37.9802 14.4679 38.316 14.1321 38.316 13.7179C38.316 13.3037 37.9802 12.9679 37.566 12.9679C37.1518 12.9679 36.816 13.3037 36.816 13.7179C36.816 14.1321 37.1518 14.4679 37.566 14.4679Z" fill="#2B100D"/>
<path d="M30.6541 14.4679C31.0683 14.4679 31.4041 14.1321 31.4041 13.7179C31.4041 13.3037 31.0683 12.9679 30.6541 12.9679C30.2398 12.9679 29.9041 13.3037 29.9041 13.7179C29.9041 14.1321 30.2398 14.4679 30.6541 14.4679Z" fill="#2B100D"/>
<path d="M28.3499 14.4679C28.7642 14.4679 29.0999 14.1321 29.0999 13.7179C29.0999 13.3037 28.7642 12.9679 28.3499 12.9679C27.9357 12.9679 27.5999 13.3037 27.5999 13.7179C27.5999 14.1321 27.9357 14.4679 28.3499 14.4679Z" fill="#2B100D"/>
<path d="M26.046 14.4679C26.4602 14.4679 26.796 14.1321 26.796 13.7179C26.796 13.3037 26.4602 12.9679 26.046 12.9679C25.6318 12.9679 25.296 13.3037 25.296 13.7179C25.296 14.1321 25.6318 14.4679 26.046 14.4679Z" fill="#2B100D"/>
<path d="M9.918 14.4679C10.3322 14.4679 10.668 14.1321 10.668 13.7179C10.668 13.3037 10.3322 12.9679 9.918 12.9679C9.50379 12.9679 9.168 13.3037 9.168 13.7179C9.168 14.1321 9.50379 14.4679 9.918 14.4679Z" fill="#2B100D"/>
<path d="M30.6541 12.145C31.0683 12.145 31.4041 11.8092 31.4041 11.395C31.4041 10.9808 31.0683 10.645 30.6541 10.645C30.2398 10.645 29.9041 10.9808 29.9041 11.395C29.9041 11.8092 30.2398 12.145 30.6541 12.145Z" fill="#2B100D"/>
<path d="M28.3499 12.145C28.7642 12.145 29.0999 11.8092 29.0999 11.395C29.0999 10.9808 28.7642 10.645 28.3499 10.645C27.9357 10.645 27.5999 10.9808 27.5999 11.395C27.5999 11.8092 27.9357 12.145 28.3499 12.145Z" fill="#2B100D"/>
<path d="M30.6541 9.82251C31.0683 9.82251 31.4041 9.48672 31.4041 9.07251C31.4041 8.6583 31.0683 8.32251 30.6541 8.32251C30.2398 8.32251 29.9041 8.6583 29.9041 9.07251C29.9041 9.48672 30.2398 9.82251 30.6541 9.82251Z" fill="#2B100D"/>
</g>
</g>
<defs>
<clipPath id="clip0">
<rect width="36" height="36" fill="white" transform="translate(6 6)"/>
</clipPath>
<clipPath id="clip1">
<rect width="72" height="36" fill="white" transform="translate(-12 6)"/>
</clipPath>
</defs>
</svg>
