<?xml version="1.0" encoding="UTF-8" standalone="no"?>
<!DOCTYPE svg PUBLIC "-//W3C//DTD SVG 1.1//EN" "http://www.w3.org/Graphics/SVG/1.1/DTD/svg11.dtd">
<svg width="100%" height="100%" viewBox="0 0 48 48" version="1.1" xmlns="http://www.w3.org/2000/svg" xmlns:xlink="http://www.w3.org/1999/xlink" xml:space="preserve" xmlns:serif="http://www.serif.com/" style="fill-rule:evenodd;clip-rule:evenodd;stroke-linecap:round;">
    <path d="M16.5,1.5L31.5,1.5L31.5,4.5L37.5,4.5L37.5,7.5L40.5,7.5L40.5,10.5L43.5,10.5L43.5,16.5L46.5,16.5L46.5,31.5L43.5,31.5L43.5,37.5L40.5,37.5L40.5,40.5L37.5,40.5L37.5,43.5L34.5,43.5L31.5,43.5L31.5,46.5L28.5,46.5L25.5,46.5L22.5,46.5L19.5,46.5L16.5,46.5L16.5,43.5L13.5,43.5L10.5,43.5L10.5,40.5L7.5,40.5L7.5,37.5L4.5,37.5L4.5,34.5L4.5,31.5L1.5,31.5L1.5,28.5L1.5,25.5L1.5,22.5L1.5,19.5L1.5,16.5L4.5,16.5L4.5,13.5L4.5,10.5L7.5,10.5L7.5,7.5L10.5,7.5L10.5,4.5L16.5,4.5L16.5,1.5Z" style="fill:rgb(234,254,255);"/>
    <path d="M16.5,1.5L16.5,1.25L16.25,1.25L16.25,1.5L16.5,1.5ZM31.5,1.5L31.75,1.5L31.75,1.25L31.5,1.25L31.5,1.5ZM31.5,4.5L31.25,4.5L31.25,4.75L31.5,4.75L31.5,4.5ZM37.5,4.5L37.75,4.5L37.75,4.25L37.5,4.25L37.5,4.5ZM37.5,7.5L37.25,7.5L37.25,7.75L37.5,7.75L37.5,7.5ZM40.5,7.5L40.75,7.5L40.75,7.25L40.5,7.25L40.5,7.5ZM40.5,10.5L40.25,10.5L40.25,10.75L40.5,10.75L40.5,10.5ZM43.5,10.5L43.75,10.5L43.75,10.25L43.5,10.25L43.5,10.5ZM43.5,16.5L43.25,16.5L43.25,16.75L43.5,16.75L43.5,16.5ZM46.5,16.5L46.75,16.5L46.75,16.25L46.5,16.25L46.5,16.5ZM46.5,31.5L46.5,31.75L46.75,31.75L46.75,31.5L46.5,31.5ZM43.5,31.5L43.5,31.25L43.25,31.25L43.25,31.5L43.5,31.5ZM43.5,37.5L43.5,37.75L43.75,37.75L43.75,37.5L43.5,37.5ZM40.5,37.5L40.5,37.25L40.25,37.25L40.25,37.5L40.5,37.5ZM40.5,40.5L40.5,40.75L40.75,40.75L40.75,40.5L40.5,40.5ZM37.5,40.5L37.5,40.25L37.25,40.25L37.25,40.5L37.5,40.5ZM37.5,43.5L37.5,43.75L37.75,43.75L37.75,43.5L37.5,43.5ZM31.5,43.5L31.5,43.25L31.25,43.25L31.25,43.5L31.5,43.5ZM31.5,46.5L31.5,46.75L31.75,46.75L31.75,46.5L31.5,46.5ZM16.5,46.5L16.25,46.5L16.25,46.75L16.5,46.75L16.5,46.5ZM16.5,43.5L16.75,43.5L16.75,43.25L16.5,43.25L16.5,43.5ZM10.5,43.5L10.25,43.5L10.25,43.75L10.5,43.75L10.5,43.5ZM10.5,40.5L10.75,40.5L10.75,40.25L10.5,40.25L10.5,40.5ZM7.5,40.5L7.25,40.5L7.25,40.75L7.5,40.75L7.5,40.5ZM7.5,37.5L7.75,37.5L7.75,37.25L7.5,37.25L7.5,37.5ZM4.5,37.5L4.25,37.5L4.25,37.75L4.5,37.75L4.5,37.5ZM4.5,31.5L4.75,31.5L4.75,31.25L4.5,31.25L4.5,31.5ZM1.5,31.5L1.25,31.5L1.25,31.75L1.5,31.75L1.5,31.5ZM1.5,16.5L1.5,16.25L1.25,16.25L1.25,16.5L1.5,16.5ZM4.5,16.5L4.5,16.75L4.75,16.75L4.75,16.5L4.5,16.5ZM4.5,10.5L4.5,10.25L4.25,10.25L4.25,10.5L4.5,10.5ZM7.5,10.5L7.5,10.75L7.75,10.75L7.75,10.5L7.5,10.5ZM7.5,7.5L7.5,7.25L7.25,7.25L7.25,7.5L7.5,7.5ZM10.5,7.5L10.5,7.75L10.75,7.75L10.75,7.5L10.5,7.5ZM10.5,4.5L10.5,4.25L10.25,4.25L10.25,4.5L10.5,4.5ZM16.5,4.5L16.5,4.75L16.75,4.75L16.75,4.5L16.5,4.5ZM19.5,1.25L16.5,1.25L16.5,1.75L19.5,1.75L19.5,1.25ZM22.5,1.25L19.5,1.25L19.5,1.75L22.5,1.75L22.5,1.25ZM25.5,1.25L22.5,1.25L22.5,1.75L25.5,1.75L25.5,1.25ZM28.5,1.25L25.5,1.25L25.5,1.75L28.5,1.75L28.5,1.25ZM31.5,1.25L28.5,1.25L28.5,1.75L31.5,1.75L31.5,1.25ZM31.75,4.5L31.75,1.5L31.25,1.5L31.25,4.5L31.75,4.5ZM34.5,4.25L31.5,4.25L31.5,4.75L34.5,4.75L34.5,4.25ZM37.5,4.25L34.5,4.25L34.5,4.75L37.5,4.75L37.5,4.25ZM37.75,7.5L37.75,4.5L37.25,4.5L37.25,7.5L37.75,7.5ZM40.5,7.25L37.5,7.25L37.5,7.75L40.5,7.75L40.5,7.25ZM40.75,10.5L40.75,7.5L40.25,7.5L40.25,10.5L40.75,10.5ZM43.5,10.25L40.5,10.25L40.5,10.75L43.5,10.75L43.5,10.25ZM43.75,13.5L43.75,10.5L43.25,10.5L43.25,13.5L43.75,13.5ZM43.75,16.5L43.75,13.5L43.25,13.5L43.25,16.5L43.75,16.5ZM46.5,16.25L43.5,16.25L43.5,16.75L46.5,16.75L46.5,16.25ZM46.75,19.5L46.75,16.5L46.25,16.5L46.25,19.5L46.75,19.5ZM46.75,22.5L46.75,19.5L46.25,19.5L46.25,22.5L46.75,22.5ZM46.75,25.5L46.75,22.5L46.25,22.5L46.25,25.5L46.75,25.5ZM46.75,28.5L46.75,25.5L46.25,25.5L46.25,28.5L46.75,28.5ZM46.75,31.5L46.75,28.5L46.25,28.5L46.25,31.5L46.75,31.5ZM43.5,31.75L46.5,31.75L46.5,31.25L43.5,31.25L43.5,31.75ZM43.75,34.5L43.75,31.5L43.25,31.5L43.25,34.5L43.75,34.5ZM43.75,37.5L43.75,34.5L43.25,34.5L43.25,37.5L43.75,37.5ZM40.5,37.75L43.5,37.75L43.5,37.25L40.5,37.25L40.5,37.75ZM40.75,40.5L40.75,37.5L40.25,37.5L40.25,40.5L40.75,40.5ZM37.5,40.75L40.5,40.75L40.5,40.25L37.5,40.25L37.5,40.75ZM37.75,43.5L37.75,40.5L37.25,40.5L37.25,43.5L37.75,43.5ZM34.5,43.75L37.5,43.75L37.5,43.25L34.5,43.25L34.5,43.75ZM31.5,43.75L34.5,43.75L34.5,43.25L31.5,43.25L31.5,43.75ZM31.75,46.5L31.75,43.5L31.25,43.5L31.25,46.5L31.75,46.5ZM28.5,46.75L31.5,46.75L31.5,46.25L28.5,46.25L28.5,46.75ZM25.5,46.75L28.5,46.75L28.5,46.25L25.5,46.25L25.5,46.75ZM22.5,46.75L25.5,46.75L25.5,46.25L22.5,46.25L22.5,46.75ZM19.5,46.75L22.5,46.75L22.5,46.25L19.5,46.25L19.5,46.75ZM16.5,46.75L19.5,46.75L19.5,46.25L16.5,46.25L16.5,46.75ZM16.25,43.5L16.25,46.5L16.75,46.5L16.75,43.5L16.25,43.5ZM13.5,43.75L16.5,43.75L16.5,43.25L13.5,43.25L13.5,43.75ZM10.5,43.75L13.5,43.75L13.5,43.25L10.5,43.25L10.5,43.75ZM10.25,40.5L10.25,43.5L10.75,43.5L10.75,40.5L10.25,40.5ZM7.5,40.75L10.5,40.75L10.5,40.25L7.5,40.25L7.5,40.75ZM7.25,37.5L7.25,40.5L7.75,40.5L7.75,37.5L7.25,37.5ZM4.5,37.75L7.5,37.75L7.5,37.25L4.5,37.25L4.5,37.75ZM4.25,34.5L4.25,37.5L4.75,37.5L4.75,34.5L4.25,34.5ZM4.25,31.5L4.25,34.5L4.75,34.5L4.75,31.5L4.25,31.5ZM1.5,31.75L4.5,31.75L4.5,31.25L1.5,31.25L1.5,31.75ZM1.25,28.5L1.25,31.5L1.75,31.5L1.75,28.5L1.25,28.5ZM1.25,25.5L1.25,28.5L1.75,28.5L1.75,25.5L1.25,25.5ZM1.25,22.5L1.25,25.5L1.75,25.5L1.75,22.5L1.25,22.5ZM1.25,19.5L1.25,22.5L1.75,22.5L1.75,19.5L1.25,19.5ZM1.25,16.5L1.25,19.5L1.75,19.5L1.75,16.5L1.25,16.5ZM4.5,16.25L1.5,16.25L1.5,16.75L4.5,16.75L4.5,16.25ZM4.25,13.5L4.25,16.5L4.75,16.5L4.75,13.5L4.25,13.5ZM4.25,10.5L4.25,13.5L4.75,13.5L4.75,10.5L4.25,10.5ZM7.5,10.25L4.5,10.25L4.5,10.75L7.5,10.75L7.5,10.25ZM7.25,7.5L7.25,10.5L7.75,10.5L7.75,7.5L7.25,7.5ZM10.5,7.25L7.5,7.25L7.5,7.75L10.5,7.75L10.5,7.25ZM10.25,4.5L10.25,7.5L10.75,7.5L10.75,4.5L10.25,4.5ZM13.5,4.25L10.5,4.25L10.5,4.75L13.5,4.75L13.5,4.25ZM16.5,4.25L13.5,4.25L13.5,4.75L16.5,4.75L16.5,4.25ZM16.25,1.5L16.25,4.5L16.75,4.5L16.75,1.5L16.25,1.5Z" style="fill:rgb(43,16,13);fill-rule:nonzero;"/>
    <g>
        <path d="M30.654,40.016C31.068,40.016 31.404,39.68 31.404,39.266C31.404,38.852 31.068,38.516 30.654,38.516C30.24,38.516 29.904,38.852 29.904,39.266C29.904,39.68 30.24,40.016 30.654,40.016Z" style="fill:rgb(43,16,13);fill-rule:nonzero;"/>
        <path d="M30.654,37.694C31.068,37.694 31.404,37.358 31.404,36.944C31.404,36.529 31.068,36.194 30.654,36.194C30.24,36.194 29.904,36.529 29.904,36.944C29.904,37.358 30.24,37.694 30.654,37.694Z" style="fill:rgb(43,16,13);fill-rule:nonzero;"/>
        <path d="M28.35,37.694C28.764,37.694 29.1,37.358 29.1,36.944C29.1,36.529 28.764,36.194 28.35,36.194C27.936,36.194 27.6,36.529 27.6,36.944C27.6,37.358 27.936,37.694 28.35,37.694Z" style="fill:rgb(43,16,13);fill-rule:nonzero;"/>
        <path d="M37.566,35.371C37.98,35.371 38.316,35.035 38.316,34.621C38.316,34.207 37.98,33.871 37.566,33.871C37.152,33.871 36.816,34.207 36.816,34.621C36.816,35.035 37.152,35.371 37.566,35.371Z" style="fill:rgb(43,16,13);fill-rule:nonzero;"/>
        <path d="M30.654,35.371C31.068,35.371 31.404,35.035 31.404,34.621C31.404,34.207 31.068,33.871 30.654,33.871C30.24,33.871 29.904,34.207 29.904,34.621C29.904,35.035 30.24,35.371 30.654,35.371Z" style="fill:rgb(43,16,13);fill-rule:nonzero;"/>
        <path d="M28.35,35.371C28.764,35.371 29.1,35.035 29.1,34.621C29.1,34.207 28.764,33.871 28.35,33.871C27.936,33.871 27.6,34.207 27.6,34.621C27.6,35.035 27.936,35.371 28.35,35.371Z" style="fill:rgb(43,16,13);fill-rule:nonzero;"/>
        <path d="M26.046,35.371C26.46,35.371 26.796,35.035 26.796,34.621C26.796,34.207 26.46,33.871 26.046,33.871C25.632,33.871 25.296,34.207 25.296,34.621C25.296,35.035 25.632,35.371 26.046,35.371Z" style="fill:rgb(43,16,13);fill-rule:nonzero;"/>
        <path d="M9.918,35.371C10.332,35.371 10.668,35.035 10.668,34.621C10.668,34.207 10.332,33.871 9.918,33.871C9.504,33.871 9.168,34.207 9.168,34.621C9.168,35.035 9.504,35.371 9.918,35.371Z" style="fill:rgb(43,16,13);fill-rule:nonzero;"/>
        <path d="M37.566,33.048C37.98,33.048 38.316,32.713 38.316,32.298C38.316,31.884 37.98,31.548 37.566,31.548C37.152,31.548 36.816,31.884 36.816,32.298C36.816,32.713 37.152,33.048 37.566,33.048Z" style="fill:rgb(43,16,13);fill-rule:nonzero;"/>
        <path d="M35.262,33.048C35.676,33.048 36.012,32.713 36.012,32.298C36.012,31.884 35.676,31.548 35.262,31.548C34.848,31.548 34.512,31.884 34.512,32.298C34.512,32.713 34.848,33.048 35.262,33.048Z" style="fill:rgb(43,16,13);fill-rule:nonzero;"/>
        <path d="M30.654,33.048C31.068,33.048 31.404,32.713 31.404,32.298C31.404,31.884 31.068,31.548 30.654,31.548C30.24,31.548 29.904,31.884 29.904,32.298C29.904,32.713 30.24,33.048 30.654,33.048Z" style="fill:rgb(43,16,13);fill-rule:nonzero;"/>
        <path d="M28.35,33.048C28.764,33.048 29.1,32.713 29.1,32.298C29.1,31.884 28.764,31.548 28.35,31.548C27.936,31.548 27.6,31.884 27.6,32.298C27.6,32.713 27.936,33.048 28.35,33.048Z" style="fill:rgb(43,16,13);fill-rule:nonzero;"/>
        <path d="M26.046,33.048C26.46,33.048 26.796,32.713 26.796,32.298C26.796,31.884 26.46,31.548 26.046,31.548C25.632,31.548 25.296,31.884 25.296,32.298C25.296,32.713 25.632,33.048 26.046,33.048Z" style="fill:rgb(43,16,13);fill-rule:nonzero;"/>
        <path d="M9.918,33.048C10.332,33.048 10.668,32.713 10.668,32.298C10.668,31.884 10.332,31.548 9.918,31.548C9.504,31.548 9.168,31.884 9.168,32.298C9.168,32.713 9.504,33.048 9.918,33.048Z" style="fill:rgb(43,16,13);fill-rule:nonzero;"/>
        <path d="M39.87,30.726C40.284,30.726 40.62,30.39 40.62,29.976C40.62,29.562 40.284,29.226 39.87,29.226C39.456,29.226 39.12,29.562 39.12,29.976C39.12,30.39 39.456,30.726 39.87,30.726Z" style="fill:rgb(43,16,13);fill-rule:nonzero;"/>
        <path d="M37.566,30.726C37.98,30.726 38.316,30.39 38.316,29.976C38.316,29.562 37.98,29.226 37.566,29.226C37.152,29.226 36.816,29.562 36.816,29.976C36.816,30.39 37.152,30.726 37.566,30.726Z" style="fill:rgb(43,16,13);fill-rule:nonzero;"/>
        <path d="M35.262,30.726C35.676,30.726 36.012,30.39 36.012,29.976C36.012,29.562 35.676,29.226 35.262,29.226C34.848,29.226 34.512,29.562 34.512,29.976C34.512,30.39 34.848,30.726 35.262,30.726Z" style="fill:rgb(43,16,13);fill-rule:nonzero;"/>
        <path d="M32.958,30.726C33.372,30.726 33.708,30.39 33.708,29.976C33.708,29.562 33.372,29.226 32.958,29.226C32.544,29.226 32.208,29.562 32.208,29.976C32.208,30.39 32.544,30.726 32.958,30.726Z" style="fill:rgb(43,16,13);fill-rule:nonzero;"/>
        <path d="M30.654,30.726C31.068,30.726 31.404,30.39 31.404,29.976C31.404,29.562 31.068,29.226 30.654,29.226C30.24,29.226 29.904,29.562 29.904,29.976C29.904,30.39 30.24,30.726 30.654,30.726Z" style="fill:rgb(43,16,13);fill-rule:nonzero;"/>
        <path d="M28.35,30.726C28.764,30.726 29.1,30.39 29.1,29.976C29.1,29.562 28.764,29.226 28.35,29.226C27.936,29.226 27.6,29.562 27.6,29.976C27.6,30.39 27.936,30.726 28.35,30.726Z" style="fill:rgb(43,16,13);fill-rule:nonzero;"/>
        <path d="M26.046,30.726C26.46,30.726 26.796,30.39 26.796,29.976C26.796,29.562 26.46,29.226 26.046,29.226C25.632,29.226 25.296,29.562 25.296,29.976C25.296,30.39 25.632,30.726 26.046,30.726Z" style="fill:rgb(43,16,13);fill-rule:nonzero;"/>
        <path d="M23.742,30.726C24.156,30.726 24.492,30.39 24.492,29.976C24.492,29.562 24.156,29.226 23.742,29.226C23.328,29.226 22.992,29.562 22.992,29.976C22.992,30.39 23.328,30.726 23.742,30.726Z" style="fill:rgb(43,16,13);fill-rule:nonzero;"/>
        <path d="M12.222,30.726C12.636,30.726 12.972,30.39 12.972,29.976C12.972,29.562 12.636,29.226 12.222,29.226C11.808,29.226 11.472,29.562 11.472,29.976C11.472,30.39 11.808,30.726 12.222,30.726Z" style="fill:rgb(43,16,13);fill-rule:nonzero;"/>
        <path d="M9.918,30.726C10.332,30.726 10.668,30.39 10.668,29.976C10.668,29.562 10.332,29.226 9.918,29.226C9.504,29.226 9.168,29.562 9.168,29.976C9.168,30.39 9.504,30.726 9.918,30.726Z" style="fill:rgb(43,16,13);fill-rule:nonzero;"/>
        <path d="M7.614,30.726C8.028,30.726 8.364,30.39 8.364,29.976C8.364,29.562 8.028,29.226 7.614,29.226C7.2,29.226 6.864,29.562 6.864,29.976C6.864,30.39 7.2,30.726 7.614,30.726Z" style="fill:rgb(43,16,13);fill-rule:nonzero;"/>
        <path d="M39.87,28.403C40.284,28.403 40.62,28.068 40.62,27.653C40.62,27.239 40.284,26.903 39.87,26.903C39.456,26.903 39.12,27.239 39.12,27.653C39.12,28.068 39.456,28.403 39.87,28.403Z" style="fill:rgb(43,16,13);fill-rule:nonzero;"/>
        <path d="M37.566,28.403C37.98,28.403 38.316,28.068 38.316,27.653C38.316,27.239 37.98,26.903 37.566,26.903C37.152,26.903 36.816,27.239 36.816,27.653C36.816,28.068 37.152,28.403 37.566,28.403Z" style="fill:rgb(43,16,13);fill-rule:nonzero;"/>
        <path d="M35.262,28.403C35.676,28.403 36.012,28.068 36.012,27.653C36.012,27.239 35.676,26.903 35.262,26.903C34.848,26.903 34.512,27.239 34.512,27.653C34.512,28.068 34.848,28.403 35.262,28.403Z" style="fill:rgb(43,16,13);fill-rule:nonzero;"/>
        <path d="M32.958,28.403C33.372,28.403 33.708,28.068 33.708,27.653C33.708,27.239 33.372,26.903 32.958,26.903C32.544,26.903 32.208,27.239 32.208,27.653C32.208,28.068 32.544,28.403 32.958,28.403Z" style="fill:rgb(43,16,13);fill-rule:nonzero;"/>
        <path d="M30.654,28.403C31.068,28.403 31.404,28.068 31.404,27.653C31.404,27.239 31.068,26.903 30.654,26.903C30.24,26.903 29.904,27.239 29.904,27.653C29.904,28.068 30.24,28.403 30.654,28.403Z" style="fill:rgb(43,16,13);fill-rule:nonzero;"/>
        <path d="M28.35,28.403C28.764,28.403 29.1,28.068 29.1,27.653C29.1,27.239 28.764,26.903 28.35,26.903C27.936,26.903 27.6,27.239 27.6,27.653C27.6,28.068 27.936,28.403 28.35,28.403Z" style="fill:rgb(43,16,13);fill-rule:nonzero;"/>
        <path d="M26.046,28.403C26.46,28.403 26.796,28.068 26.796,27.653C26.796,27.239 26.46,26.903 26.046,26.903C25.632,26.903 25.296,27.239 25.296,27.653C25.296,28.068 25.632,28.403 26.046,28.403Z" style="fill:rgb(43,16,13);fill-rule:nonzero;"/>
        <path d="M23.742,28.403C24.156,28.403 24.492,28.068 24.492,27.653C24.492,27.239 24.156,26.903 23.742,26.903C23.328,26.903 22.992,27.239 22.992,27.653C22.992,28.068 23.328,28.403 23.742,28.403Z" style="fill:rgb(43,16,13);fill-rule:nonzero;"/>
        <path d="M21.438,28.403C21.852,28.403 22.188,28.068 22.188,27.653C22.188,27.239 21.852,26.903 21.438,26.903C21.024,26.903 20.688,27.239 20.688,27.653C20.688,28.068 21.024,28.403 21.438,28.403Z" style="fill:rgb(43,16,13);fill-rule:nonzero;"/>
        <path d="M16.83,28.403C17.244,28.403 17.58,28.068 17.58,27.653C17.58,27.239 17.244,26.903 16.83,26.903C16.416,26.903 16.08,27.239 16.08,27.653C16.08,28.068 16.416,28.403 16.83,28.403Z" style="fill:rgb(43,16,13);fill-rule:nonzero;"/>
        <path d="M14.526,28.403C14.94,28.403 15.276,28.068 15.276,27.653C15.276,27.239 14.94,26.903 14.526,26.903C14.112,26.903 13.776,27.239 13.776,27.653C13.776,28.068 14.112,28.403 14.526,28.403Z" style="fill:rgb(43,16,13);fill-rule:nonzero;"/>
        <path d="M12.222,28.403C12.636,28.403 12.972,28.068 12.972,27.653C12.972,27.239 12.636,26.903 12.222,26.903C11.808,26.903 11.472,27.239 11.472,27.653C11.472,28.068 11.808,28.403 12.222,28.403Z" style="fill:rgb(43,16,13);fill-rule:nonzero;"/>
        <path d="M9.918,28.403C10.332,28.403 10.668,28.068 10.668,27.653C10.668,27.239 10.332,26.903 9.918,26.903C9.504,26.903 9.168,27.239 9.168,27.653C9.168,28.068 9.504,28.403 9.918,28.403Z" style="fill:rgb(43,16,13);fill-rule:nonzero;"/>
        <path d="M7.614,28.403C8.028,28.403 8.364,28.068 8.364,27.653C8.364,27.239 8.028,26.903 7.614,26.903C7.2,26.903 6.864,27.239 6.864,27.653C6.864,28.068 7.2,28.403 7.614,28.403Z" style="fill:rgb(43,16,13);fill-rule:nonzero;"/>
        <path d="M39.87,26.081C40.284,26.081 40.62,25.745 40.62,25.331C40.62,24.916 40.284,24.581 39.87,24.581C39.456,24.581 39.12,24.916 39.12,25.331C39.12,25.745 39.456,26.081 39.87,26.081Z" style="fill:rgb(43,16,13);fill-rule:nonzero;"/>
        <path d="M37.566,26.081C37.98,26.081 38.316,25.745 38.316,25.331C38.316,24.916 37.98,24.581 37.566,24.581C37.152,24.581 36.816,24.916 36.816,25.331C36.816,25.745 37.152,26.081 37.566,26.081Z" style="fill:rgb(43,16,13);fill-rule:nonzero;"/>
        <path d="M35.262,26.081C35.676,26.081 36.012,25.745 36.012,25.331C36.012,24.916 35.676,24.581 35.262,24.581C34.848,24.581 34.512,24.916 34.512,25.331C34.512,25.745 34.848,26.081 35.262,26.081Z" style="fill:rgb(43,16,13);fill-rule:nonzero;"/>
        <path d="M32.958,26.081C33.372,26.081 33.708,25.745 33.708,25.331C33.708,24.916 33.372,24.581 32.958,24.581C32.544,24.581 32.208,24.916 32.208,25.331C32.208,25.745 32.544,26.081 32.958,26.081Z" style="fill:rgb(43,16,13);fill-rule:nonzero;"/>
        <path d="M30.654,26.081C31.068,26.081 31.404,25.745 31.404,25.331C31.404,24.916 31.068,24.581 30.654,24.581C30.24,24.581 29.904,24.916 29.904,25.331C29.904,25.745 30.24,26.081 30.654,26.081Z" style="fill:rgb(43,16,13);fill-rule:nonzero;"/>
        <path d="M28.35,26.081C28.764,26.081 29.1,25.745 29.1,25.331C29.1,24.916 28.764,24.581 28.35,24.581C27.936,24.581 27.6,24.916 27.6,25.331C27.6,25.745 27.936,26.081 28.35,26.081Z" style="fill:rgb(43,16,13);fill-rule:nonzero;"/>
        <path d="M26.046,26.081C26.46,26.081 26.796,25.745 26.796,25.331C26.796,24.916 26.46,24.581 26.046,24.581C25.632,24.581 25.296,24.916 25.296,25.331C25.296,25.745 25.632,26.081 26.046,26.081Z" style="fill:rgb(43,16,13);fill-rule:nonzero;"/>
        <path d="M23.742,26.081C24.156,26.081 24.492,25.745 24.492,25.331C24.492,24.916 24.156,24.581 23.742,24.581C23.328,24.581 22.992,24.916 22.992,25.331C22.992,25.745 23.328,26.081 23.742,26.081Z" style="fill:rgb(43,16,13);fill-rule:nonzero;"/>
        <path d="M21.438,26.081C21.852,26.081 22.188,25.745 22.188,25.331C22.188,24.916 21.852,24.581 21.438,24.581C21.024,24.581 20.688,24.916 20.688,25.331C20.688,25.745 21.024,26.081 21.438,26.081Z" style="fill:rgb(43,16,13);fill-rule:nonzero;"/>
        <path d="M19.134,26.081C19.548,26.081 19.884,25.745 19.884,25.331C19.884,24.916 19.548,24.581 19.134,24.581C18.72,24.581 18.384,24.916 18.384,25.331C18.384,25.745 18.72,26.081 19.134,26.081Z" style="fill:rgb(43,16,13);fill-rule:nonzero;"/>
        <path d="M16.83,26.081C17.244,26.081 17.58,25.745 17.58,25.331C17.58,24.916 17.244,24.581 16.83,24.581C16.416,24.581 16.08,24.916 16.08,25.331C16.08,25.745 16.416,26.081 16.83,26.081Z" style="fill:rgb(43,16,13);fill-rule:nonzero;"/>
        <path d="M14.526,26.081C14.94,26.081 15.276,25.745 15.276,25.331C15.276,24.916 14.94,24.581 14.526,24.581C14.112,24.581 13.776,24.916 13.776,25.331C13.776,25.745 14.112,26.081 14.526,26.081Z" style="fill:rgb(43,16,13);fill-rule:nonzero;"/>
        <path d="M12.222,26.081C12.636,26.081 12.972,25.745 12.972,25.331C12.972,24.916 12.636,24.581 12.222,24.581C11.808,24.581 11.472,24.916 11.472,25.331C11.472,25.745 11.808,26.081 12.222,26.081Z" style="fill:rgb(43,16,13);fill-rule:nonzero;"/>
        <path d="M9.918,26.081C10.332,26.081 10.668,25.745 10.668,25.331C10.668,24.916 10.332,24.581 9.918,24.581C9.504,24.581 9.168,24.916 9.168,25.331C9.168,25.745 9.504,26.081 9.918,26.081Z" style="fill:rgb(43,16,13);fill-rule:nonzero;"/>
        <path d="M7.614,26.081C8.028,26.081 8.364,25.745 8.364,25.331C8.364,24.916 8.028,24.581 7.614,24.581C7.2,24.581 6.864,24.916 6.864,25.331C6.864,25.745 7.2,26.081 7.614,26.081Z" style="fill:rgb(43,16,13);fill-rule:nonzero;"/>
        <path d="M39.87,23.758C40.284,23.758 40.62,23.422 40.62,23.008C40.62,22.594 40.284,22.258 39.87,22.258C39.456,22.258 39.12,22.594 39.12,23.008C39.12,23.422 39.456,23.758 39.87,23.758Z" style="fill:rgb(43,16,13);fill-rule:nonzero;"/>
        <path d="M37.566,23.758C37.98,23.758 38.316,23.422 38.316,23.008C38.316,22.594 37.98,22.258 37.566,22.258C37.152,22.258 36.816,22.594 36.816,23.008C36.816,23.422 37.152,23.758 37.566,23.758Z" style="fill:rgb(43,16,13);fill-rule:nonzero;"/>
        <path d="M35.262,23.758C35.676,23.758 36.012,23.422 36.012,23.008C36.012,22.594 35.676,22.258 35.262,22.258C34.848,22.258 34.512,22.594 34.512,23.008C34.512,23.422 34.848,23.758 35.262,23.758Z" style="fill:rgb(43,16,13);fill-rule:nonzero;"/>
        <path d="M32.958,23.758C33.372,23.758 33.708,23.422 33.708,23.008C33.708,22.594 33.372,22.258 32.958,22.258C32.544,22.258 32.208,22.594 32.208,23.008C32.208,23.422 32.544,23.758 32.958,23.758Z" style="fill:rgb(43,16,13);fill-rule:nonzero;"/>
        <path d="M30.654,23.758C31.068,23.758 31.404,23.422 31.404,23.008C31.404,22.594 31.068,22.258 30.654,22.258C30.24,22.258 29.904,22.594 29.904,23.008C29.904,23.422 30.24,23.758 30.654,23.758Z" style="fill:rgb(43,16,13);fill-rule:nonzero;"/>
        <path d="M28.35,23.758C28.764,23.758 29.1,23.422 29.1,23.008C29.1,22.594 28.764,22.258 28.35,22.258C27.936,22.258 27.6,22.594 27.6,23.008C27.6,23.422 27.936,23.758 28.35,23.758Z" style="fill:rgb(43,16,13);fill-rule:nonzero;"/>
        <path d="M26.046,23.758C26.46,23.758 26.796,23.422 26.796,23.008C26.796,22.594 26.46,22.258 26.046,22.258C25.632,22.258 25.296,22.594 25.296,23.008C25.296,23.422 25.632,23.758 26.046,23.758Z" style="fill:rgb(43,16,13);fill-rule:nonzero;"/>
        <path d="M23.742,23.758C24.156,23.758 24.492,23.422 24.492,23.008C24.492,22.594 24.156,22.258 23.742,22.258C23.328,22.258 22.992,22.594 22.992,23.008C22.992,23.422 23.328,23.758 23.742,23.758Z" style="fill:rgb(43,16,13);fill-rule:nonzero;"/>
        <path d="M21.438,23.758C21.852,23.758 22.188,23.422 22.188,23.008C22.188,22.594 21.852,22.258 21.438,22.258C21.024,22.258 20.688,22.594 20.688,23.008C20.688,23.422 21.024,23.758 21.438,23.758Z" style="fill:rgb(43,16,13);fill-rule:nonzero;"/>
        <path d="M19.134,23.758C19.548,23.758 19.884,23.422 19.884,23.008C19.884,22.594 19.548,22.258 19.134,22.258C18.72,22.258 18.384,22.594 18.384,23.008C18.384,23.422 18.72,23.758 19.134,23.758Z" style="fill:rgb(43,16,13);fill-rule:nonzero;"/>
        <path d="M16.83,23.758C17.244,23.758 17.58,23.422 17.58,23.008C17.58,22.594 17.244,22.258 16.83,22.258C16.416,22.258 16.08,22.594 16.08,23.008C16.08,23.422 16.416,23.758 16.83,23.758Z" style="fill:rgb(43,16,13);fill-rule:nonzero;"/>
        <path d="M14.526,23.758C14.94,23.758 15.276,23.422 15.276,23.008C15.276,22.594 14.94,22.258 14.526,22.258C14.112,22.258 13.776,22.594 13.776,23.008C13.776,23.422 14.112,23.758 14.526,23.758Z" style="fill:rgb(43,16,13);fill-rule:nonzero;"/>
        <path d="M12.222,23.758C12.636,23.758 12.972,23.422 12.972,23.008C12.972,22.594 12.636,22.258 12.222,22.258C11.808,22.258 11.472,22.594 11.472,23.008C11.472,23.422 11.808,23.758 12.222,23.758Z" style="fill:rgb(43,16,13);fill-rule:nonzero;"/>
        <path d="M9.918,23.758C10.332,23.758 10.668,23.422 10.668,23.008C10.668,22.594 10.332,22.258 9.918,22.258C9.504,22.258 9.168,22.594 9.168,23.008C9.168,23.422 9.504,23.758 9.918,23.758Z" style="fill:rgb(43,16,13);fill-rule:nonzero;"/>
        <path d="M7.614,23.758C8.028,23.758 8.364,23.422 8.364,23.008C8.364,22.594 8.028,22.258 7.614,22.258C7.2,22.258 6.864,22.594 6.864,23.008C6.864,23.422 7.2,23.758 7.614,23.758Z" style="fill:rgb(43,16,13);fill-rule:nonzero;"/>
        <path d="M39.87,21.435C40.284,21.435 40.62,21.1 40.62,20.685C40.62,20.271 40.284,19.935 39.87,19.935C39.456,19.935 39.12,20.271 39.12,20.685C39.12,21.1 39.456,21.435 39.87,21.435Z" style="fill:rgb(43,16,13);fill-rule:nonzero;"/>
        <path d="M37.566,21.435C37.98,21.435 38.316,21.1 38.316,20.685C38.316,20.271 37.98,19.935 37.566,19.935C37.152,19.935 36.816,20.271 36.816,20.685C36.816,21.1 37.152,21.435 37.566,21.435Z" style="fill:rgb(43,16,13);fill-rule:nonzero;"/>
        <path d="M35.262,21.435C35.676,21.435 36.012,21.1 36.012,20.685C36.012,20.271 35.676,19.935 35.262,19.935C34.848,19.935 34.512,20.271 34.512,20.685C34.512,21.1 34.848,21.435 35.262,21.435Z" style="fill:rgb(43,16,13);fill-rule:nonzero;"/>
        <path d="M32.958,21.435C33.372,21.435 33.708,21.1 33.708,20.685C33.708,20.271 33.372,19.935 32.958,19.935C32.544,19.935 32.208,20.271 32.208,20.685C32.208,21.1 32.544,21.435 32.958,21.435Z" style="fill:rgb(43,16,13);fill-rule:nonzero;"/>
        <path d="M30.654,21.435C31.068,21.435 31.404,21.1 31.404,20.685C31.404,20.271 31.068,19.935 30.654,19.935C30.24,19.935 29.904,20.271 29.904,20.685C29.904,21.1 30.24,21.435 30.654,21.435Z" style="fill:rgb(43,16,13);fill-rule:nonzero;"/>
        <path d="M28.35,21.435C28.764,21.435 29.1,21.1 29.1,20.685C29.1,20.271 28.764,19.935 28.35,19.935C27.936,19.935 27.6,20.271 27.6,20.685C27.6,21.1 27.936,21.435 28.35,21.435Z" style="fill:rgb(43,16,13);fill-rule:nonzero;"/>
        <path d="M26.046,21.435C26.46,21.435 26.796,21.1 26.796,20.685C26.796,20.271 26.46,19.935 26.046,19.935C25.632,19.935 25.296,20.271 25.296,20.685C25.296,21.1 25.632,21.435 26.046,21.435Z" style="fill:rgb(43,16,13);fill-rule:nonzero;"/>
        <path d="M23.742,21.435C24.156,21.435 24.492,21.1 24.492,20.685C24.492,20.271 24.156,19.935 23.742,19.935C23.328,19.935 22.992,20.271 22.992,20.685C22.992,21.1 23.328,21.435 23.742,21.435Z" style="fill:rgb(43,16,13);fill-rule:nonzero;"/>
        <path d="M21.438,21.435C21.852,21.435 22.188,21.1 22.188,20.685C22.188,20.271 21.852,19.935 21.438,19.935C21.024,19.935 20.688,20.271 20.688,20.685C20.688,21.1 21.024,21.435 21.438,21.435Z" style="fill:rgb(43,16,13);fill-rule:nonzero;"/>
        <path d="M16.83,21.435C17.244,21.435 17.58,21.1 17.58,20.685C17.58,20.271 17.244,19.935 16.83,19.935C16.416,19.935 16.08,20.271 16.08,20.685C16.08,21.1 16.416,21.435 16.83,21.435Z" style="fill:rgb(43,16,13);fill-rule:nonzero;"/>
        <path d="M14.526,21.435C14.94,21.435 15.276,21.1 15.276,20.685C15.276,20.271 14.94,19.935 14.526,19.935C14.112,19.935 13.776,20.271 13.776,20.685C13.776,21.1 14.112,21.435 14.526,21.435Z" style="fill:rgb(43,16,13);fill-rule:nonzero;"/>
        <path d="M12.222,21.435C12.636,21.435 12.972,21.1 12.972,20.685C12.972,20.271 12.636,19.935 12.222,19.935C11.808,19.935 11.472,20.271 11.472,20.685C11.472,21.1 11.808,21.435 12.222,21.435Z" style="fill:rgb(43,16,13);fill-rule:nonzero;"/>
        <path d="M9.918,21.435C10.332,21.435 10.668,21.1 10.668,20.685C10.668,20.271 10.332,19.935 9.918,19.935C9.504,19.935 9.168,20.271 9.168,20.685C9.168,21.1 9.504,21.435 9.918,21.435Z" style="fill:rgb(43,16,13);fill-rule:nonzero;"/>
        <path d="M7.614,21.435C8.028,21.435 8.364,21.1 8.364,20.685C8.364,20.271 8.028,19.935 7.614,19.935C7.2,19.935 6.864,20.271 6.864,20.685C6.864,21.1 7.2,21.435 7.614,21.435Z" style="fill:rgb(43,16,13);fill-rule:nonzero;"/>
        <path d="M39.87,19.113C40.284,19.113 40.62,18.777 40.62,18.363C40.62,17.949 40.284,17.613 39.87,17.613C39.456,17.613 39.12,17.949 39.12,18.363C39.12,18.777 39.456,19.113 39.87,19.113Z" style="fill:rgb(43,16,13);fill-rule:nonzero;"/>
        <path d="M37.566,19.113C37.98,19.113 38.316,18.777 38.316,18.363C38.316,17.949 37.98,17.613 37.566,17.613C37.152,17.613 36.816,17.949 36.816,18.363C36.816,18.777 37.152,19.113 37.566,19.113Z" style="fill:rgb(43,16,13);fill-rule:nonzero;"/>
        <path d="M35.262,19.113C35.676,19.113 36.012,18.777 36.012,18.363C36.012,17.949 35.676,17.613 35.262,17.613C34.848,17.613 34.512,17.949 34.512,18.363C34.512,18.777 34.848,19.113 35.262,19.113Z" style="fill:rgb(43,16,13);fill-rule:nonzero;"/>
        <path d="M32.958,19.113C33.372,19.113 33.708,18.777 33.708,18.363C33.708,17.949 33.372,17.613 32.958,17.613C32.544,17.613 32.208,17.949 32.208,18.363C32.208,18.777 32.544,19.113 32.958,19.113Z" style="fill:rgb(43,16,13);fill-rule:nonzero;"/>
        <path d="M30.654,19.113C31.068,19.113 31.404,18.777 31.404,18.363C31.404,17.949 31.068,17.613 30.654,17.613C30.24,17.613 29.904,17.949 29.904,18.363C29.904,18.777 30.24,19.113 30.654,19.113Z" style="fill:rgb(43,16,13);fill-rule:nonzero;"/>
        <path d="M28.35,19.113C28.764,19.113 29.1,18.777 29.1,18.363C29.1,17.949 28.764,17.613 28.35,17.613C27.936,17.613 27.6,17.949 27.6,18.363C27.6,18.777 27.936,19.113 28.35,19.113Z" style="fill:rgb(43,16,13);fill-rule:nonzero;"/>
        <path d="M26.046,19.113C26.46,19.113 26.796,18.777 26.796,18.363C26.796,17.949 26.46,17.613 26.046,17.613C25.632,17.613 25.296,17.949 25.296,18.363C25.296,18.777 25.632,19.113 26.046,19.113Z" style="fill:rgb(43,16,13);fill-rule:nonzero;"/>
        <path d="M23.742,19.113C24.156,19.113 24.492,18.777 24.492,18.363C24.492,17.949 24.156,17.613 23.742,17.613C23.328,17.613 22.992,17.949 22.992,18.363C22.992,18.777 23.328,19.113 23.742,19.113Z" style="fill:rgb(43,16,13);fill-rule:nonzero;"/>
        <path d="M12.222,19.113C12.636,19.113 12.972,18.777 12.972,18.363C12.972,17.949 12.636,17.613 12.222,17.613C11.808,17.613 11.472,17.949 11.472,18.363C11.472,18.777 11.808,19.113 12.222,19.113Z" style="fill:rgb(43,16,13);fill-rule:nonzero;"/>
        <path d="M9.918,19.113C10.332,19.113 10.668,18.777 10.668,18.363C10.668,17.949 10.332,17.613 9.918,17.613C9.504,17.613 9.168,17.949 9.168,18.363C9.168,18.777 9.504,19.113 9.918,19.113Z" style="fill:rgb(43,16,13);fill-rule:nonzero;"/>
        <path d="M7.614,19.113C8.028,19.113 8.364,18.777 8.364,18.363C8.364,17.949 8.028,17.613 7.614,17.613C7.2,17.613 6.864,17.949 6.864,18.363C6.864,18.777 7.2,19.113 7.614,19.113Z" style="fill:rgb(43,16,13);fill-rule:nonzero;"/>
        <path d="M37.566,16.79C37.98,16.79 38.316,16.455 38.316,16.04C38.316,15.626 37.98,15.29 37.566,15.29C37.152,15.29 36.816,15.626 36.816,16.04C36.816,16.455 37.152,16.79 37.566,16.79Z" style="fill:rgb(43,16,13);fill-rule:nonzero;"/>
        <path d="M35.262,16.79C35.676,16.79 36.012,16.455 36.012,16.04C36.012,15.626 35.676,15.29 35.262,15.29C34.848,15.29 34.512,15.626 34.512,16.04C34.512,16.455 34.848,16.79 35.262,16.79Z" style="fill:rgb(43,16,13);fill-rule:nonzero;"/>
        <path d="M30.654,16.79C31.068,16.79 31.404,16.455 31.404,16.04C31.404,15.626 31.068,15.29 30.654,15.29C30.24,15.29 29.904,15.626 29.904,16.04C29.904,16.455 30.24,16.79 30.654,16.79Z" style="fill:rgb(43,16,13);fill-rule:nonzero;"/>
        <path d="M28.35,16.79C28.764,16.79 29.1,16.455 29.1,16.04C29.1,15.626 28.764,15.29 28.35,15.29C27.936,15.29 27.6,15.626 27.6,16.04C27.6,16.455 27.936,16.79 28.35,16.79Z" style="fill:rgb(43,16,13);fill-rule:nonzero;"/>
        <path d="M26.046,16.79C26.46,16.79 26.796,16.455 26.796,16.04C26.796,15.626 26.46,15.29 26.046,15.29C25.632,15.29 25.296,15.626 25.296,16.04C25.296,16.455 25.632,16.79 26.046,16.79Z" style="fill:rgb(43,16,13);fill-rule:nonzero;"/>
        <path d="M9.918,16.79C10.332,16.79 10.668,16.455 10.668,16.04C10.668,15.626 10.332,15.29 9.918,15.29C9.504,15.29 9.168,15.626 9.168,16.04C9.168,16.455 9.504,16.79 9.918,16.79Z" style="fill:rgb(43,16,13);fill-rule:nonzero;"/>
        <path d="M37.566,14.468C37.98,14.468 38.316,14.132 38.316,13.718C38.316,13.304 37.98,12.968 37.566,12.968C37.152,12.968 36.816,13.304 36.816,13.718C36.816,14.132 37.152,14.468 37.566,14.468Z" style="fill:rgb(43,16,13);fill-rule:nonzero;"/>
        <path d="M30.654,14.468C31.068,14.468 31.404,14.132 31.404,13.718C31.404,13.304 31.068,12.968 30.654,12.968C30.24,12.968 29.904,13.304 29.904,13.718C29.904,14.132 30.24,14.468 30.654,14.468Z" style="fill:rgb(43,16,13);fill-rule:nonzero;"/>
        <path d="M28.35,14.468C28.764,14.468 29.1,14.132 29.1,13.718C29.1,13.304 28.764,12.968 28.35,12.968C27.936,12.968 27.6,13.304 27.6,13.718C27.6,14.132 27.936,14.468 28.35,14.468Z" style="fill:rgb(43,16,13);fill-rule:nonzero;"/>
        <path d="M26.046,14.468C26.46,14.468 26.796,14.132 26.796,13.718C26.796,13.304 26.46,12.968 26.046,12.968C25.632,12.968 25.296,13.304 25.296,13.718C25.296,14.132 25.632,14.468 26.046,14.468Z" style="fill:rgb(43,16,13);fill-rule:nonzero;"/>
        <path d="M9.918,14.468C10.332,14.468 10.668,14.132 10.668,13.718C10.668,13.304 10.332,12.968 9.918,12.968C9.504,12.968 9.168,13.304 9.168,13.718C9.168,14.132 9.504,14.468 9.918,14.468Z" style="fill:rgb(43,16,13);fill-rule:nonzero;"/>
        <path d="M30.654,12.145C31.068,12.145 31.404,11.809 31.404,11.395C31.404,10.981 31.068,10.645 30.654,10.645C30.24,10.645 29.904,10.981 29.904,11.395C29.904,11.809 30.24,12.145 30.654,12.145Z" style="fill:rgb(43,16,13);fill-rule:nonzero;"/>
        <path d="M28.35,12.145C28.764,12.145 29.1,11.809 29.1,11.395C29.1,10.981 28.764,10.645 28.35,10.645C27.936,10.645 27.6,10.981 27.6,11.395C27.6,11.809 27.936,12.145 28.35,12.145Z" style="fill:rgb(43,16,13);fill-rule:nonzero;"/>
        <path d="M30.654,9.823C31.068,9.823 31.404,9.487 31.404,9.073C31.404,8.658 31.068,8.323 30.654,8.323C30.24,8.323 29.904,8.658 29.904,9.073C29.904,9.487 30.24,9.823 30.654,9.823Z" style="fill:rgb(43,16,13);fill-rule:nonzero;"/>
    </g>
    <g transform="matrix(0.219551,0,0,0.219551,35.7717,35.7717)">
        <rect x="1.04" y="1.04" width="49.92" height="49.92" style="fill:rgb(255,252,246);stroke:rgb(255,252,246);stroke-width:1.92px;"/>
        <rect x="2" y="2" width="48" height="48" style="fill:rgb(255,252,246);"/>
        <path d="M2.177,3.177C2,3.569 2,4.073 2,5.08L2,11.615C2,11.741 2,11.804 2.022,11.853C2.047,11.908 2.092,11.953 2.147,11.978C2.196,12 2.259,12 2.385,12L6.615,12C6.741,12 6.804,12 6.853,11.978C6.908,11.953 6.953,11.908 6.978,11.853C7,11.804 7,11.741 7,11.615L7,10.08C7,9.073 7,8.569 7.177,8.177C7.378,7.733 7.733,7.378 8.177,7.177C8.569,7 9.073,7 10.08,7L41.92,7C42.927,7 43.431,7 43.823,7.177C44.267,7.378 44.622,7.733 44.823,8.177C45,8.569 45,9.073 45,10.08L45,11.615C45,11.741 45,11.804 45.022,11.853C45.047,11.908 45.092,11.953 45.147,11.978C45.196,12 45.259,12 45.385,12L49.615,12C49.741,12 49.804,12 49.853,11.978C49.908,11.953 49.953,11.908 49.978,11.853C50,11.804 50,11.741 50,11.615L50,5.08C50,4.073 50,3.569 49.823,3.177C49.622,2.733 49.267,2.378 48.823,2.177C48.431,2 47.927,2 46.92,2L5.08,2C4.073,2 3.569,2 3.177,2.177C2.733,2.378 2.378,2.733 2.177,3.177ZM2.385,38C2.259,38 2.196,38 2.147,37.978C2.092,37.953 2.047,37.908 2.022,37.853C2,37.804 2,37.741 2,37.615L2,14.385C2,14.259 2,14.196 2.022,14.147C2.047,14.092 2.092,14.047 2.147,14.022C2.196,14 2.259,14 2.385,14L6.615,14C6.741,14 6.804,14 6.853,14.022C6.908,14.047 6.953,14.092 6.978,14.147C7,14.196 7,14.259 7,14.385L7,37.615C7,37.741 7,37.804 6.978,37.853C6.953,37.908 6.908,37.953 6.853,37.978C6.804,38 6.741,38 6.615,38L2.385,38ZM2.385,40C2.259,40 2.196,40 2.147,40.022C2.092,40.047 2.047,40.092 2.022,40.147C2,40.196 2,40.259 2,40.385L2,46.92C2,47.927 2,48.431 2.177,48.823C2.378,49.267 2.733,49.622 3.177,49.823C3.569,50 4.073,50 5.08,50L46.92,50C47.927,50 48.431,50 48.823,49.823C49.267,49.622 49.622,49.267 49.823,48.823C50,48.431 50,47.927 50,46.92L50,40.385C50,40.259 50,40.196 49.978,40.147C49.953,40.092 49.908,40.047 49.853,40.022C49.804,40 49.741,40 49.615,40L45.385,40C45.259,40 45.196,40 45.147,40.022C45.092,40.047 45.047,40.092 45.022,40.147C45,40.196 45,40.259 45,40.385L45,41.92C45,42.927 45,43.431 44.823,43.823C44.622,44.267 44.267,44.622 43.823,44.823C43.431,45 42.927,45 41.92,45L10.08,45C9.073,45 8.569,45 8.177,44.823C7.733,44.622 7.378,44.267 7.177,43.823C7,43.431 7,42.927 7,41.92L7,40.385C7,40.259 7,40.196 6.978,40.147C6.953,40.092 6.908,40.047 6.853,40.022C6.804,40 6.741,40 6.615,40L2.385,40ZM45,37.615C45,37.741 45,37.804 45.022,37.853C45.047,37.908 45.092,37.953 45.147,37.978C45.196,38 45.259,38 45.385,38L49.615,38C49.741,38 49.804,38 49.853,37.978C49.908,37.953 49.953,37.908 49.978,37.853C50,37.804 50,37.741 50,37.615L50,14.385C50,14.259 50,14.196 49.978,14.147C49.953,14.092 49.908,14.047 49.853,14.022C49.804,14 49.741,14 49.615,14L45.385,14C45.259,14 45.196,14 45.147,14.022C45.092,14.047 45.047,14.092 45.022,14.147C45,14.196 45,14.259 45,14.385L45,37.615Z" style="fill:rgb(255,119,88);"/>
        <path d="M26.221,11.414C26.127,11.237 25.874,11.237 25.779,11.414L10.196,40.632C10.107,40.799 10.228,41 10.417,41L41.583,41C41.772,41 41.893,40.799 41.804,40.632L26.221,11.414Z" style="fill:rgb(43,16,13);fill-rule:nonzero;"/>
    </g>
</svg>
