<svg width="24" height="24" viewBox="0 0 24 24" fill="none" xmlns="http://www.w3.org/2000/svg">
<g clip-path="url(#clip0)">
<path d="M7.46023 4.39723C7.88369 3.56197 9.14405 3.8632 9.14405 4.79967V16.25C9.14405 16.7415 8.74558 17.14 8.25405 17.14H2.44905C1.78527 17.14 1.35508 16.4396 1.65523 15.8476L7.46023 4.39723Z" fill="#2B100D"/>
<path d="M21.9917 15.7319L12.3422 2.25387C11.8384 1.55027 10.7285 1.90664 10.7285 2.77196V16.25C10.7285 16.7415 11.127 17.14 11.6185 17.14H21.2681C21.9924 17.14 22.4134 16.3208 21.9917 15.7319Z" fill="#2B100D"/>
<path d="M18.9772 18.8466H4.40321C3.64382 18.8466 3.23327 19.7365 3.72612 20.3142L4.89776 21.6876C5.06686 21.8858 5.31432 22 5.57486 22H11.3921H17.7093C17.9577 22 18.1947 21.8962 18.3632 21.7137L19.6312 20.3403C20.1575 19.7702 19.7531 18.8466 18.9772 18.8466Z" fill="#2B100D"/>
</g>
<defs>
<clipPath id="clip0">
<rect width="24" height="24" fill="white"/>
</clipPath>
</defs>
</svg>
