<svg width="21" height="20" viewBox="0 0 21 20" fill="none" xmlns="http://www.w3.org/2000/svg">
<path d="M16.5 6.01562V4H4.5V6.01562H16.5ZM12.5156 12.0156V10H4.5V12.0156H12.5156ZM4.5 7V9.01562H16.5V7H4.5ZM18.5156 0.015625C19.0469 0.015625 19.5 0.21875 19.875 0.625C20.2812 1 20.4844 1.45312 20.4844 1.98438V13.9844C20.4844 14.5156 20.2812 14.9844 19.875 15.3906C19.5 15.7969 19.0469 16 18.5156 16H4.5L0.515625 19.9844V1.98438C0.515625 1.45312 0.703125 1 1.07812 0.625C1.48438 0.21875 1.95312 0.015625 2.48438 0.015625H18.5156Z" fill="#2B100D"/>
</svg>
