<?xml version="1.0" encoding="UTF-8" standalone="no"?>
<!DOCTYPE svg PUBLIC "-//W3C//DTD SVG 1.1//EN" "http://www.w3.org/Graphics/SVG/1.1/DTD/svg11.dtd">
<svg width="100%" height="100%" viewBox="0 0 21 20" version="1.1" xmlns="http://www.w3.org/2000/svg" xmlns:xlink="http://www.w3.org/1999/xlink" xml:space="preserve" xmlns:serif="http://www.serif.com/" style="fill-rule:evenodd;clip-rule:evenodd;stroke-linejoin:round;stroke-miterlimit:2;">
    <path d="M16.5,6.016L16.5,4L4.5,4L4.5,6.016L16.5,6.016ZM12.516,12.016L12.516,10L4.5,10L4.5,12.016L12.516,12.016ZM4.5,7L4.5,9.016L16.5,9.016L16.5,7L4.5,7ZM18.516,0.016C19.047,0.016 19.5,0.219 19.875,0.625C20.281,1 20.484,1.453 20.484,1.984L20.484,13.984C20.484,14.516 20.281,14.984 19.875,15.391C19.5,15.797 19.047,16 18.516,16L4.5,16L0.516,19.984L0.516,1.984C0.516,1.453 0.703,1 1.078,0.625C1.484,0.219 1.953,0.016 2.484,0.016L18.516,0.016Z" style="fill:rgb(255,252,246);fill-rule:nonzero;"/>
</svg>
