<svg width="32" height="32" viewBox="0 0 32 32" fill="none" xmlns="http://www.w3.org/2000/svg">
<path fill-rule="evenodd" clip-rule="evenodd" d="M11 1H13H15H17H19H21V3H23H25V5H27V7H29V9V11H31V13V15V17V19V21H29V23V25H27V27H25V29H23H21V31H19H17H15H13H11V29H9H7V27H5V25H3V23V21H1V19V17V15V13V11H3V9V7H5V5H7V3H9H11V1Z" fill="#FFFCF6"/>
<path d="M22.9844 10.4219L17.4062 16L22.9844 21.5781L21.5781 22.9844L16 17.4062L10.4219 22.9844L9.01562 21.5781L14.5938 16L9.01562 10.4219L10.4219 9.01562L16 14.5938L21.5781 9.01562L22.9844 10.4219Z" fill="#2B100D"/>
</svg>
