<svg width="25" height="24" viewBox="0 0 25 24" fill="none" xmlns="http://www.w3.org/2000/svg">
<g clip-path="url(#clip0)">
<path d="M6.22264 3.18073C5.98167 2.93976 5.59099 2.93976 5.35002 3.18073L3.26425 5.2665C3.02328 5.50747 3.02328 5.89816 3.26425 6.13913L9.12505 11.9999L3.2641 17.8609C3.02313 18.1018 3.02313 18.4925 3.2641 18.7335L5.34987 20.8193C5.59084 21.0602 5.98153 21.0602 6.2225 20.8193L14.3347 12.707C14.7253 12.3165 14.7253 11.6833 14.3347 11.2928L6.22264 3.18073Z" fill="#2B100D"/>
<path d="M17.9026 3.18073C18.1436 2.93976 18.5343 2.93976 18.7752 3.18073L20.861 5.2665C21.102 5.50747 21.102 5.89816 20.861 6.13913L15.0002 11.9999L20.8611 17.8609C21.1021 18.1018 21.1021 18.4925 20.8611 18.7335L18.7754 20.8193C18.5344 21.0602 18.1437 21.0602 17.9027 20.8193L9.7905 12.707C9.39998 12.3165 9.39998 11.6833 9.7905 11.2928L17.9026 3.18073Z" fill="#2B100D"/>
</g>
<defs>
<clipPath id="clip0">
<rect width="24" height="24" fill="white" transform="translate(0.083374)"/>
</clipPath>
</defs>
</svg>
