<svg width="24" height="24" viewBox="0 0 24 24" fill="none" xmlns="http://www.w3.org/2000/svg">
<rect x="7" y="21" width="1" height="1" fill="#2B100D"/>
<rect x="8" y="20" width="1" height="1" fill="#2B100D"/>
<rect x="8" y="21" width="1" height="1" fill="#2B100D"/>
<rect x="9" y="21" width="1" height="1" fill="#2B100D"/>
<rect x="10" y="21" width="1" height="1" fill="#2B100D"/>
<rect x="11" y="21" width="1" height="1" fill="#2B100D"/>
<rect x="12" y="21" width="1" height="1" fill="#2B100D"/>
<rect x="13" y="21" width="1" height="1" fill="#2B100D"/>
<rect x="14" y="21" width="1" height="1" fill="#2B100D"/>
<rect x="15" y="21" width="1" height="1" fill="#2B100D"/>
<rect x="9" y="20" width="1" height="1" fill="#2B100D"/>
<rect x="10" y="20" width="1" height="1" fill="#2B100D"/>
<rect x="11" y="20" width="1" height="1" fill="#2B100D"/>
<rect x="12" y="20" width="1" height="1" fill="#2B100D"/>
<rect x="13" y="20" width="1" height="1" fill="#2B100D"/>
<rect x="15" y="20" width="1" height="1" fill="#2B100D"/>
<rect x="16" y="21" width="1" height="1" fill="#2B100D"/>
<rect x="14" y="20" width="1" height="1" fill="#2B100D"/>
<rect x="11" y="2" width="1" height="1" fill="#2B100D"/>
<rect x="11" y="3" width="1" height="1" fill="#2B100D"/>
<rect x="11" y="4" width="1" height="1" fill="#2B100D"/>
<rect x="11" y="5.00009" width="1" height="1" fill="#2B100D"/>
<rect x="11" y="11.0001" width="1" height="1" fill="#2B100D"/>
<rect x="11" y="12.0001" width="1" height="1" fill="#2B100D"/>
<rect x="11" y="13.0001" width="1" height="1" fill="#2B100D"/>
<rect x="11" y="14.0001" width="1" height="1" fill="#2B100D"/>
<rect x="11" y="15.0001" width="1" height="1" fill="#2B100D"/>
<rect x="11" y="16.0001" width="1" height="1" fill="#2B100D"/>
<rect x="11" y="17.0001" width="1" height="1" fill="#2B100D"/>
<rect x="11" y="18.0001" width="1" height="1" fill="#2B100D"/>
<rect x="10" y="2" width="1" height="1" fill="#2B100D"/>
<rect x="10" y="3" width="1" height="1" fill="#2B100D"/>
<rect x="10" y="4" width="1" height="1" fill="#2B100D"/>
<rect x="10" y="5.00009" width="1" height="1" fill="#2B100D"/>
<rect x="10" y="6.00009" width="1" height="1" fill="#2B100D"/>
<rect x="10" y="10.0001" width="1" height="1" fill="#2B100D"/>
<rect x="10" y="11.0001" width="1" height="1" fill="#2B100D"/>
<rect x="10" y="12.0001" width="1" height="1" fill="#2B100D"/>
<rect x="10" y="13.0001" width="1" height="1" fill="#2B100D"/>
<rect x="10" y="14.0001" width="1" height="1" fill="#2B100D"/>
<rect x="10" y="15.0001" width="1" height="1" fill="#2B100D"/>
<rect x="10" y="16.0001" width="1" height="1" fill="#2B100D"/>
<rect x="9" y="16" width="1" height="1" fill="#2B100D"/>
<rect x="10" y="17.0001" width="1" height="1" fill="#2B100D"/>
<rect x="9" y="3" width="1" height="1" fill="#2B100D"/>
<rect x="9" y="4" width="1" height="1" fill="#2B100D"/>
<rect x="9" y="5.00009" width="1" height="1" fill="#2B100D"/>
<rect x="9" y="6.00009" width="1" height="1" fill="#2B100D"/>
<rect x="9" y="7.00009" width="1" height="1" fill="#2B100D"/>
<rect x="9" y="9.00009" width="1" height="1" fill="#2B100D"/>
<rect x="9" y="10.0001" width="1" height="1" fill="#2B100D"/>
<rect x="9" y="11.0001" width="1" height="1" fill="#2B100D"/>
<rect x="9" y="12.0001" width="1" height="1" fill="#2B100D"/>
<rect x="9" y="13.0001" width="1" height="1" fill="#2B100D"/>
<rect x="8" y="13" width="1" height="1" fill="#2B100D"/>
<rect x="9" y="14.0001" width="1" height="1" fill="#2B100D"/>
<rect x="8" y="14" width="1" height="1" fill="#2B100D"/>
<rect x="9" y="15.0001" width="1" height="1" fill="#2B100D"/>
<rect x="8" y="4" width="1" height="1" fill="#2B100D"/>
<rect x="8" y="5.00009" width="1" height="1" fill="#2B100D"/>
<rect x="8" y="6.00009" width="1" height="1" fill="#2B100D"/>
<rect x="8" y="7.00009" width="1" height="1" fill="#2B100D"/>
<rect x="8" y="8.00009" width="1" height="1" fill="#2B100D"/>
<rect x="8" y="9.00009" width="1" height="1" fill="#2B100D"/>
<rect x="8" y="10.0001" width="1" height="1" fill="#2B100D"/>
<rect x="8" y="11.0001" width="1" height="1" fill="#2B100D"/>
<rect x="8" y="12.0001" width="1" height="1" fill="#2B100D"/>
<rect x="7" y="12" width="1" height="1" fill="#2B100D"/>
<rect x="7" y="5" width="1" height="1" fill="#2B100D"/>
<rect x="7" y="6" width="1" height="1" fill="#2B100D"/>
<rect x="7" y="7" width="1" height="1" fill="#2B100D"/>
<rect x="7" y="8" width="1" height="1" fill="#2B100D"/>
<rect x="7" y="9" width="1" height="1" fill="#2B100D"/>
<rect x="7" y="10" width="1" height="1" fill="#2B100D"/>
<rect x="7" y="11" width="1" height="1" fill="#2B100D"/>
<rect x="6" y="6" width="1" height="1" fill="#2B100D"/>
<rect x="6" y="7" width="1" height="1" fill="#2B100D"/>
<rect x="5" y="7" width="1" height="1" fill="#2B100D"/>
<rect x="6" y="8" width="1" height="1" fill="#2B100D"/>
<rect x="5" y="8" width="1" height="1" fill="#2B100D"/>
<rect x="6" y="9" width="1" height="1" fill="#2B100D"/>
<rect x="5" y="9" width="1" height="1" fill="#2B100D"/>
<rect x="6" y="10" width="1" height="1" fill="#2B100D"/>
<rect x="12" y="2" width="1" height="1" fill="#2B100D"/>
<rect x="12" y="3" width="1" height="1" fill="#2B100D"/>
<rect x="12" y="4" width="1" height="1" fill="#2B100D"/>
<rect x="12" y="5.00009" width="1" height="1" fill="#2B100D"/>
<rect x="12" y="11.0001" width="1" height="1" fill="#2B100D"/>
<rect x="12" y="12.0001" width="1" height="1" fill="#2B100D"/>
<rect x="12" y="13.0001" width="1" height="1" fill="#2B100D"/>
<rect x="12" y="14.0001" width="1" height="1" fill="#2B100D"/>
<rect x="12" y="15.0001" width="1" height="1" fill="#2B100D"/>
<rect x="12" y="16.0001" width="1" height="1" fill="#2B100D"/>
<rect x="12" y="17.0001" width="1" height="1" fill="#2B100D"/>
<rect x="12" y="18.0001" width="1" height="1" fill="#2B100D"/>
<rect x="13" y="2" width="1" height="1" fill="#2B100D"/>
<rect width="1" height="1" transform="matrix(-1 0 0 1 14 3)" fill="#2B100D"/>
<rect width="1" height="1" transform="matrix(-1 0 0 1 14 4)" fill="#2B100D"/>
<rect width="1" height="1" transform="matrix(-1 0 0 1 14 5.00009)" fill="#2B100D"/>
<rect width="1" height="1" transform="matrix(-1 0 0 1 14 6.00009)" fill="#2B100D"/>
<rect width="1" height="1" transform="matrix(-1 0 0 1 14 10.0001)" fill="#2B100D"/>
<rect width="1" height="1" transform="matrix(-1 0 0 1 14 11.0001)" fill="#2B100D"/>
<rect width="1" height="1" transform="matrix(-1 0 0 1 14 12.0001)" fill="#2B100D"/>
<rect width="1" height="1" transform="matrix(-1 0 0 1 14 13.0001)" fill="#2B100D"/>
<rect width="1" height="1" transform="matrix(-1 0 0 1 14 14.0001)" fill="#2B100D"/>
<rect width="1" height="1" transform="matrix(-1 0 0 1 14 15.0001)" fill="#2B100D"/>
<rect width="1" height="1" transform="matrix(-1 0 0 1 14 16.0001)" fill="#2B100D"/>
<rect width="1" height="1" transform="matrix(-1 0 0 1 15 16)" fill="#2B100D"/>
<rect width="1" height="1" transform="matrix(-1 0 0 1 14 17.0001)" fill="#2B100D"/>
<rect width="1" height="1" transform="matrix(-1 0 0 1 15 3)" fill="#2B100D"/>
<rect width="1" height="1" transform="matrix(-1 0 0 1 15 4)" fill="#2B100D"/>
<rect width="1" height="1" transform="matrix(-1 0 0 1 15 5.00009)" fill="#2B100D"/>
<rect width="1" height="1" transform="matrix(-1 0 0 1 15 6.00009)" fill="#2B100D"/>
<rect width="1" height="1" transform="matrix(-1 0 0 1 15 7.00009)" fill="#2B100D"/>
<rect width="1" height="1" transform="matrix(-1 0 0 1 15 9.00009)" fill="#2B100D"/>
<rect width="1" height="1" transform="matrix(-1 0 0 1 15 10.0001)" fill="#2B100D"/>
<rect width="1" height="1" transform="matrix(-1 0 0 1 15 11.0001)" fill="#2B100D"/>
<rect width="1" height="1" transform="matrix(-1 0 0 1 15 12.0001)" fill="#2B100D"/>
<rect width="1" height="1" transform="matrix(-1 0 0 1 15 13.0001)" fill="#2B100D"/>
<rect width="1" height="1" transform="matrix(-1 0 0 1 16 13)" fill="#2B100D"/>
<rect width="1" height="1" transform="matrix(-1 0 0 1 15 14.0001)" fill="#2B100D"/>
<rect width="1" height="1" transform="matrix(-1 0 0 1 16 14)" fill="#2B100D"/>
<rect width="1" height="1" transform="matrix(-1 0 0 1 15 15.0001)" fill="#2B100D"/>
<rect width="1" height="1" transform="matrix(-1 0 0 1 16 4)" fill="#2B100D"/>
<rect width="1" height="1" transform="matrix(-1 0 0 1 16 5.00009)" fill="#2B100D"/>
<rect width="1" height="1" transform="matrix(-1 0 0 1 16 6.00009)" fill="#2B100D"/>
<rect width="1" height="1" transform="matrix(-1 0 0 1 16 7.00009)" fill="#2B100D"/>
<rect width="1" height="1" transform="matrix(-1 0 0 1 16 8.00009)" fill="#2B100D"/>
<rect width="1" height="1" transform="matrix(-1 0 0 1 16 9.00009)" fill="#2B100D"/>
<rect width="1" height="1" transform="matrix(-1 0 0 1 16 10.0001)" fill="#2B100D"/>
<rect width="1" height="1" transform="matrix(-1 0 0 1 16 11.0001)" fill="#2B100D"/>
<rect width="1" height="1" transform="matrix(-1 0 0 1 16 12.0001)" fill="#2B100D"/>
<rect width="1" height="1" transform="matrix(-1 0 0 1 17 12)" fill="#2B100D"/>
<rect width="1" height="1" transform="matrix(-1 0 0 1 17 5)" fill="#2B100D"/>
<rect width="1" height="1" transform="matrix(-1 0 0 1 17 6)" fill="#2B100D"/>
<rect width="1" height="1" transform="matrix(-1 0 0 1 17 7)" fill="#2B100D"/>
<rect width="1" height="1" transform="matrix(-1 0 0 1 17 8)" fill="#2B100D"/>
<rect width="1" height="1" transform="matrix(-1 0 0 1 17 9)" fill="#2B100D"/>
<rect width="1" height="1" transform="matrix(-1 0 0 1 17 10)" fill="#2B100D"/>
<rect width="1" height="1" transform="matrix(-1 0 0 1 17 11)" fill="#2B100D"/>
<rect width="1" height="1" transform="matrix(-1 0 0 1 18 6)" fill="#2B100D"/>
<rect width="1" height="1" transform="matrix(-1 0 0 1 18 7)" fill="#2B100D"/>
<rect width="1" height="1" transform="matrix(-1 0 0 1 19 7)" fill="#2B100D"/>
<rect width="1" height="1" transform="matrix(-1 0 0 1 18 8)" fill="#2B100D"/>
<rect width="1" height="1" transform="matrix(-1 0 0 1 19 8)" fill="#2B100D"/>
<rect width="1" height="1" transform="matrix(-1 0 0 1 18 9)" fill="#2B100D"/>
<rect width="1" height="1" transform="matrix(-1 0 0 1 19 9)" fill="#2B100D"/>
<rect width="1" height="1" transform="matrix(-1 0 0 1 18 10)" fill="#2B100D"/>
</svg>
