<?xml version="1.0" encoding="UTF-8" standalone="no"?>
<!DOCTYPE svg PUBLIC "-//W3C//DTD SVG 1.1//EN" "http://www.w3.org/Graphics/SVG/1.1/DTD/svg11.dtd">
<svg width="100%" height="100%" viewBox="0 0 24 24" version="1.1" xmlns="http://www.w3.org/2000/svg" xmlns:xlink="http://www.w3.org/1999/xlink" xml:space="preserve" xmlns:serif="http://www.serif.com/" style="fill-rule:evenodd;clip-rule:evenodd;stroke-linejoin:round;stroke-miterlimit:2;">
    <g>
        <path d="M13.262,3C12.562,3 11.765,3.436 11.232,4.115C10.797,4.667 10.618,5.272 10.746,5.778C10.995,6.777 12.333,8.898 13.262,10.28C14.021,9.153 15.047,7.537 15.537,6.437C15.542,6.426 15.549,6.414 15.553,6.402C15.658,6.167 15.736,5.951 15.778,5.778C15.907,5.272 15.728,4.667 15.292,4.115C14.76,3.436 13.962,3 13.262,3ZM13.262,6.048C12.823,6.048 12.465,5.693 12.465,5.257C12.465,4.825 12.823,4.47 13.262,4.47C13.698,4.47 14.056,4.825 14.056,5.257C14.056,5.693 13.698,6.048 13.262,6.048Z" style="fill:rgb(255,252,246);fill-rule:nonzero;"/>
        <path d="M2,19.43L7.962,21L7.962,7.402L2,5.832L2,19.43Z" style="fill:rgb(255,252,246);fill-rule:nonzero;"/>
        <path d="M13.262,12.413C13.009,12.413 12.772,12.293 12.628,12.089C12.387,11.749 10.61,9.242 9.703,7.351L9.517,7.402L9.517,21L12.473,20.225L15.483,19.43L15.483,9.716C14.748,10.889 14.044,11.884 13.896,12.089C13.752,12.293 13.515,12.413 13.262,12.413Z" style="fill:rgb(255,252,246);fill-rule:nonzero;"/>
        <path d="M17.248,6C17.235,6.077 17.228,6.157 17.212,6.234C17.166,6.449 17.091,6.694 17,6.959L17,19.439L22,21L22,7.484L17.248,6Z" style="fill:rgb(255,252,246);fill-rule:nonzero;"/>
    </g>
</svg>
