<svg width="24" height="24" viewBox="0 0 24 24" fill="none" xmlns="http://www.w3.org/2000/svg">
<g clip-path="url(#clip0)">
<path d="M13.2624 3C12.5624 3 11.7651 3.43592 11.2324 4.11487C10.7968 4.66652 10.6179 5.27218 10.7462 5.77754C10.9951 6.77668 12.3329 8.89841 13.2624 10.2795C14.0207 9.15302 15.0474 7.53665 15.5374 6.43721C15.5416 6.42563 15.549 6.41406 15.5529 6.40249C15.6583 6.16717 15.7361 5.95114 15.7785 5.77754C15.9068 5.27218 15.7279 4.66652 15.2924 4.11487C14.7596 3.43592 13.9624 3 13.2624 3ZM13.2624 6.04758C12.8229 6.04758 12.4651 5.69267 12.4651 5.25675C12.4651 4.82469 12.8229 4.46978 13.2624 4.46978C13.6979 4.46978 14.0557 4.82469 14.0557 5.25675C14.0557 5.69267 13.6979 6.04758 13.2624 6.04758Z" fill="#2B100D"/>
<path d="M2 19.4299L7.96167 21V7.40161L2 5.83153V19.4299Z" fill="#2B100D"/>
<path d="M13.2621 12.4128C13.0093 12.4128 12.7721 12.2932 12.6282 12.0887C12.3871 11.7493 10.6099 9.24176 9.70337 7.35149L9.51709 7.40164V21L12.4726 20.2246L15.4826 19.4299V9.71626C14.7476 10.889 14.0438 11.8843 13.896 12.0887C13.7521 12.2932 13.5149 12.4128 13.2621 12.4128Z" fill="#2B100D"/>
<path d="M17.2476 6C17.2345 6.07669 17.228 6.15721 17.212 6.2339C17.166 6.44862 17.0913 6.69402 17 6.95859V19.4394L22 21V7.4839L17.2476 6Z" fill="#2B100D"/>
</g>
<defs>
<clipPath id="clip0">
<rect width="24" height="24" fill="white"/>
</clipPath>
</defs>
</svg>
