<svg width="24" height="24" viewBox="0 0 24 24" fill="none" xmlns="http://www.w3.org/2000/svg">
<g clip-path="url(#clip0)">
<path fill-rule="evenodd" clip-rule="evenodd" d="M15.3333 12.8491C15.3333 13.3407 14.9349 13.7391 14.4433 13.7391H2.89C2.39847 13.7391 2 13.3407 2 12.8491V11.1509C2 10.6593 2.39847 10.2609 2.89 10.2609H14.4433C14.9349 10.2609 15.3333 10.6593 15.3333 11.1509V12V12.8491Z" fill="#2B100D"/>
<path fill-rule="evenodd" clip-rule="evenodd" d="M2 6.58825C2 7.07978 2.39847 7.47825 2.89 7.47825H18.6846C18.9487 7.47825 19.1992 7.36092 19.3683 7.15801L20.7835 5.45976C21.2666 4.88008 20.8544 4 20.0998 4H2.89C2.39847 4 2 4.39847 2 4.89V6.58825Z" fill="#2B100D"/>
<path fill-rule="evenodd" clip-rule="evenodd" d="M2 19.11C2 19.6015 2.39847 20 2.89 20H20.0998C20.8544 20 21.2666 19.1199 20.7835 18.5402L19.3683 16.842C19.1992 16.6391 18.9487 16.5218 18.6846 16.5218H2.89C2.39847 16.5218 2 16.9202 2 17.4118V19.11Z" fill="#2B100D"/>
</g>
<defs>
<clipPath id="clip0">
<rect width="24" height="24" fill="white"/>
</clipPath>
</defs>
</svg>
