<svg width="46" height="46" viewBox="0 0 46 46" fill="none" xmlns="http://www.w3.org/2000/svg">
<path d="M15.5 0.5V0.375H15.375V0.5H15.5ZM30.5 0.5H30.625V0.375H30.5V0.5ZM30.5 3.5H30.375V3.625H30.5V3.5ZM36.5 3.5H36.625V3.375H36.5V3.5ZM36.5 6.5H36.375V6.625H36.5V6.5ZM39.5 6.5H39.625V6.375H39.5V6.5ZM39.5 9.5H39.375V9.625H39.5V9.5ZM42.5 9.5H42.625V9.375H42.5V9.5ZM42.5 15.5H42.375V15.625H42.5V15.5ZM45.5 15.5H45.625V15.375H45.5V15.5ZM45.5 30.5V30.625H45.625V30.5H45.5ZM42.5 30.5V30.375H42.375V30.5H42.5ZM42.5 36.5V36.625H42.625V36.5H42.5ZM39.5 36.5V36.375H39.375V36.5H39.5ZM39.5 39.5V39.625H39.625V39.5H39.5ZM36.5 39.5V39.375H36.375V39.5H36.5ZM36.5 42.5V42.625H36.625V42.5H36.5ZM30.5 42.5V42.375H30.375V42.5H30.5ZM30.5 45.5V45.625H30.625V45.5H30.5ZM15.5 45.5H15.375V45.625H15.5V45.5ZM15.5 42.5H15.625V42.375H15.5V42.5ZM9.5 42.5H9.375V42.625H9.5V42.5ZM9.5 39.5H9.625V39.375H9.5V39.5ZM6.5 39.5H6.375V39.625H6.5V39.5ZM6.5 36.5H6.625V36.375H6.5V36.5ZM3.5 36.5H3.375V36.625H3.5V36.5ZM3.5 30.5H3.625V30.375H3.5V30.5ZM0.5 30.5H0.375V30.625H0.5V30.5ZM0.5 15.5V15.375H0.375V15.5H0.5ZM3.5 15.5V15.625H3.625V15.5H3.5ZM3.5 9.5V9.375H3.375V9.5H3.5ZM6.5 9.5V9.625H6.625V9.5H6.5ZM6.5 6.5V6.375H6.375V6.5H6.5ZM9.5 6.5V6.625H9.625V6.5H9.5ZM9.5 3.5V3.375H9.375V3.5H9.5ZM15.5 3.5V3.625H15.625V3.5H15.5ZM18.5 0.375H15.5V0.625H18.5V0.375ZM21.5 0.375H18.5V0.625H21.5V0.375ZM24.5 0.375H21.5V0.625H24.5V0.375ZM27.5 0.375H24.5V0.625H27.5V0.375ZM30.5 0.375H27.5V0.625H30.5V0.375ZM30.625 3.5V0.5H30.375V3.5H30.625ZM33.5 3.375H30.5V3.625H33.5V3.375ZM36.5 3.375H33.5V3.625H36.5V3.375ZM36.625 6.5V3.5H36.375V6.5H36.625ZM39.5 6.375H36.5V6.625H39.5V6.375ZM39.625 9.5V6.5H39.375V9.5H39.625ZM42.5 9.375H39.5V9.625H42.5V9.375ZM42.625 12.5V9.5H42.375V12.5H42.625ZM42.625 15.5V12.5H42.375V15.5H42.625ZM45.5 15.375H42.5V15.625H45.5V15.375ZM45.625 18.5V15.5H45.375V18.5H45.625ZM45.625 21.5V18.5H45.375V21.5H45.625ZM45.625 24.5V21.5H45.375V24.5H45.625ZM45.625 27.5V24.5H45.375V27.5H45.625ZM45.625 30.5V27.5H45.375V30.5H45.625ZM42.5 30.625H45.5V30.375H42.5V30.625ZM42.625 33.5V30.5H42.375V33.5H42.625ZM42.625 36.5V33.5H42.375V36.5H42.625ZM39.5 36.625H42.5V36.375H39.5V36.625ZM39.625 39.5V36.5H39.375V39.5H39.625ZM36.5 39.625H39.5V39.375H36.5V39.625ZM36.625 42.5V39.5H36.375V42.5H36.625ZM33.5 42.625H36.5V42.375H33.5V42.625ZM30.5 42.625H33.5V42.375H30.5V42.625ZM30.625 45.5V42.5H30.375V45.5H30.625ZM27.5 45.625H30.5V45.375H27.5V45.625ZM24.5 45.625H27.5V45.375H24.5V45.625ZM21.5 45.625H24.5V45.375H21.5V45.625ZM18.5 45.625H21.5V45.375H18.5V45.625ZM15.5 45.625H18.5V45.375H15.5V45.625ZM15.375 42.5V45.5H15.625V42.5H15.375ZM12.5 42.625H15.5V42.375H12.5V42.625ZM9.5 42.625H12.5V42.375H9.5V42.625ZM9.375 39.5V42.5H9.625V39.5H9.375ZM6.5 39.625H9.5V39.375H6.5V39.625ZM6.375 36.5V39.5H6.625V36.5H6.375ZM3.5 36.625H6.5V36.375H3.5V36.625ZM3.375 33.5V36.5H3.625V33.5H3.375ZM3.375 30.5V33.5H3.625V30.5H3.375ZM0.5 30.625H3.5V30.375H0.5V30.625ZM0.375 27.5V30.5H0.625V27.5H0.375ZM0.375 24.5V27.5H0.625V24.5H0.375ZM0.375 21.5V24.5H0.625V21.5H0.375ZM0.375 18.5V21.5H0.625V18.5H0.375ZM0.375 15.5V18.5H0.625V15.5H0.375ZM3.5 15.375H0.5V15.625H3.5V15.375ZM3.375 12.5V15.5H3.625V12.5H3.375ZM3.375 9.5V12.5H3.625V9.5H3.375ZM6.5 9.375H3.5V9.625H6.5V9.375ZM6.375 6.5V9.5H6.625V6.5H6.375ZM9.5 6.375H6.5V6.625H9.5V6.375ZM9.375 3.5V6.5H9.625V3.5H9.375ZM12.5 3.375H9.5V3.625H12.5V3.375ZM15.5 3.375H12.5V3.625H15.5V3.375ZM15.375 0.5V3.5H15.625V0.5H15.375Z" fill="#2B100D"/>
</svg>
