<svg width="24" height="24" viewBox="0 0 24 24" fill="none" xmlns="http://www.w3.org/2000/svg">
<rect x="11" y="18" width="2" height="2" fill="#2B100D"/>
<rect x="6" y="13" width="1" height="1" fill="#2B100D"/>
<rect width="1" height="1" transform="matrix(-1 0 0 1 18 12)" fill="#2B100D"/>
<rect x="10" y="15" width="1" height="1" fill="#2B100D"/>
<rect width="1" height="1" transform="matrix(-1 0 0 1 14 15)" fill="#2B100D"/>
<rect width="1" height="1" transform="matrix(-1 0 0 1 19 10)" fill="#2B100D"/>
<rect x="5" y="11" width="1" height="1" fill="#2B100D"/>
<rect x="8" y="14" width="1" height="1" fill="#2B100D"/>
<rect width="1" height="1" transform="matrix(-1 0 0 1 16 14)" fill="#2B100D"/>
<rect width="1" height="1" transform="matrix(-1 0 0 1 19 11)" fill="#2B100D"/>
<rect width="1" height="1" transform="matrix(-1 0 0 1 19 12)" fill="#2B100D"/>
<rect x="5" y="12" width="1" height="1" fill="#2B100D"/>
<rect x="6" y="14" width="1" height="1" fill="#2B100D"/>
<rect width="1" height="1" transform="matrix(-1 0 0 1 18 14)" fill="#2B100D"/>
<rect x="8" y="15" width="1" height="1" fill="#2B100D"/>
<rect width="1" height="1" transform="matrix(-1 0 0 1 16 15)" fill="#2B100D"/>
<rect x="10" y="16" width="1" height="1" fill="#2B100D"/>
<rect width="1" height="1" transform="matrix(-1 0 0 1 14 16)" fill="#2B100D"/>
<rect width="1" height="1" transform="matrix(-1 0 0 1 11 2)" fill="#2B100D"/>
<rect width="1" height="1" transform="matrix(-1 0 0 1 12 2)" fill="#2B100D"/>
<rect width="1" height="1" transform="matrix(-1 0 0 1 12 3)" fill="#2B100D"/>
<rect width="1" height="1" transform="matrix(-1 0 0 1 12 4)" fill="#2B100D"/>
<rect width="1" height="1" transform="matrix(-1 0 0 1 12 11)" fill="#2B100D"/>
<rect width="1" height="1" transform="matrix(-1 0 0 1 11 3)" fill="#2B100D"/>
<rect width="1" height="1" transform="matrix(-1 0 0 1 11 12)" fill="#2B100D"/>
<rect width="1" height="1" transform="matrix(-1 0 0 1 12 12)" fill="#2B100D"/>
<rect width="1" height="1" transform="matrix(-1 0 0 1 12 13)" fill="#2B100D"/>
<rect width="1" height="1" transform="matrix(-1 0 0 1 11 13)" fill="#2B100D"/>
<rect width="1" height="1" transform="matrix(-1 0 0 1 10 3)" fill="#2B100D"/>
<rect width="1" height="1" transform="matrix(-1 0 0 1 11 4)" fill="#2B100D"/>
<rect width="1" height="1" transform="matrix(-1 0 0 1 10 4)" fill="#2B100D"/>
<rect width="1" height="1" transform="matrix(-1 0 0 1 9 4)" fill="#2B100D"/>
<rect width="1" height="1" transform="matrix(-1 0 0 1 9 5)" fill="#2B100D"/>
<rect width="1" height="1" transform="matrix(-1 0 0 1 11 5)" fill="#2B100D"/>
<rect width="1" height="1" transform="matrix(-1 0 0 1 13 5)" fill="#2B100D"/>
<rect width="1" height="1" transform="matrix(-1 0 0 1 10 5)" fill="#2B100D"/>
<rect width="1" height="1" transform="matrix(-1 0 0 1 12 5)" fill="#2B100D"/>
<rect width="1" height="1" transform="matrix(-1 0 0 1 14 5)" fill="#2B100D"/>
<rect width="1" height="1" transform="matrix(-1 0 0 1 10 6)" fill="#2B100D"/>
<rect width="1" height="1" transform="matrix(-1 0 0 1 12 6)" fill="#2B100D"/>
<rect width="1" height="1" transform="matrix(-1 0 0 1 14 6)" fill="#2B100D"/>
<rect width="1" height="1" transform="matrix(-1 0 0 1 9 6)" fill="#2B100D"/>
<rect width="1" height="1" transform="matrix(-1 0 0 1 11 6)" fill="#2B100D"/>
<rect width="1" height="1" transform="matrix(-1 0 0 1 13 6)" fill="#2B100D"/>
<rect width="1" height="1" transform="matrix(-1 0 0 1 9 7)" fill="#2B100D"/>
<rect width="1" height="1" transform="matrix(-1 0 0 1 11 7)" fill="#2B100D"/>
<rect width="1" height="1" transform="matrix(-1 0 0 1 13 7)" fill="#2B100D"/>
<rect width="1" height="1" transform="matrix(-1 0 0 1 10 7)" fill="#2B100D"/>
<rect width="1" height="1" transform="matrix(-1 0 0 1 12 7)" fill="#2B100D"/>
<rect width="1" height="1" transform="matrix(-1 0 0 1 14 7)" fill="#2B100D"/>
<rect width="1" height="1" transform="matrix(-1 0 0 1 10 8)" fill="#2B100D"/>
<rect width="1" height="1" transform="matrix(-1 0 0 1 12 8)" fill="#2B100D"/>
<rect width="1" height="1" transform="matrix(-1 0 0 1 14 8)" fill="#2B100D"/>
<rect width="1" height="1" transform="matrix(-1 0 0 1 9 8)" fill="#2B100D"/>
<rect width="1" height="1" transform="matrix(-1 0 0 1 11 8)" fill="#2B100D"/>
<rect width="1" height="1" transform="matrix(-1 0 0 1 13 8)" fill="#2B100D"/>
<rect width="1" height="1" transform="matrix(-1 0 0 1 9 9)" fill="#2B100D"/>
<rect width="1" height="1" transform="matrix(-1 0 0 1 11 9)" fill="#2B100D"/>
<rect width="1" height="1" transform="matrix(-1 0 0 1 13 9)" fill="#2B100D"/>
<rect width="1" height="1" transform="matrix(-1 0 0 1 10 9)" fill="#2B100D"/>
<rect width="1" height="1" transform="matrix(-1 0 0 1 12 9)" fill="#2B100D"/>
<rect width="1" height="1" transform="matrix(-1 0 0 1 14 9)" fill="#2B100D"/>
<rect width="1" height="1" transform="matrix(-1 0 0 1 10 10)" fill="#2B100D"/>
<rect width="1" height="1" transform="matrix(-1 0 0 1 12 10)" fill="#2B100D"/>
<rect width="1" height="1" transform="matrix(-1 0 0 1 14 10)" fill="#2B100D"/>
<rect width="1" height="1" transform="matrix(-1 0 0 1 9 10)" fill="#2B100D"/>
<rect width="1" height="1" transform="matrix(-1 0 0 1 11 10)" fill="#2B100D"/>
<rect width="1" height="1" transform="matrix(-1 0 0 1 13 10)" fill="#2B100D"/>
<rect width="1" height="1" transform="matrix(-1 0 0 1 9 11)" fill="#2B100D"/>
<rect width="1" height="1" transform="matrix(-1 0 0 1 10 11)" fill="#2B100D"/>
<rect width="1" height="1" transform="matrix(-1 0 0 1 10 12)" fill="#2B100D"/>
<rect width="1" height="1" transform="matrix(-1 0 0 1 11 11)" fill="#2B100D"/>
<rect width="1" height="1" transform="matrix(-1 0 0 1 13 2)" fill="#2B100D"/>
<rect width="1" height="1" transform="matrix(-1 0 0 1 14 2)" fill="#2B100D"/>
<rect width="1" height="1" transform="matrix(-1 0 0 1 14 3)" fill="#2B100D"/>
<rect width="1" height="1" transform="matrix(-1 0 0 1 13 3)" fill="#2B100D"/>
<rect width="1" height="1" transform="matrix(-1 0 0 1 13 4)" fill="#2B100D"/>
<rect width="1" height="1" transform="matrix(-1 0 0 1 13 11)" fill="#2B100D"/>
<rect width="1" height="1" transform="matrix(-1 0 0 1 13 12)" fill="#2B100D"/>
<rect width="1" height="1" transform="matrix(-1 0 0 1 14 12)" fill="#2B100D"/>
<rect width="1" height="1" transform="matrix(-1 0 0 1 14 13)" fill="#2B100D"/>
<rect width="1" height="1" transform="matrix(-1 0 0 1 13 13)" fill="#2B100D"/>
<rect width="1" height="1" transform="matrix(-1 0 0 1 15 3)" fill="#2B100D"/>
<rect width="1" height="1" transform="matrix(-1 0 0 1 14 4)" fill="#2B100D"/>
<rect width="1" height="1" transform="matrix(-1 0 0 1 16 4)" fill="#2B100D"/>
<rect width="1" height="1" transform="matrix(-1 0 0 1 15 4)" fill="#2B100D"/>
<rect width="1" height="1" transform="matrix(-1 0 0 1 15 5)" fill="#2B100D"/>
<rect width="1" height="1" transform="matrix(-1 0 0 1 16 5)" fill="#2B100D"/>
<rect width="1" height="1" transform="matrix(-1 0 0 1 16 6)" fill="#2B100D"/>
<rect width="1" height="1" transform="matrix(-1 0 0 1 15 6)" fill="#2B100D"/>
<rect width="1" height="1" transform="matrix(-1 0 0 1 15 7)" fill="#2B100D"/>
<rect width="1" height="1" transform="matrix(-1 0 0 1 16 7)" fill="#2B100D"/>
<rect width="1" height="1" transform="matrix(-1 0 0 1 16 8)" fill="#2B100D"/>
<rect width="1" height="1" transform="matrix(-1 0 0 1 15 8)" fill="#2B100D"/>
<rect width="1" height="1" transform="matrix(-1 0 0 1 15 9)" fill="#2B100D"/>
<rect width="1" height="1" transform="matrix(-1 0 0 1 16 9)" fill="#2B100D"/>
<rect width="1" height="1" transform="matrix(-1 0 0 1 16 10)" fill="#2B100D"/>
<rect width="1" height="1" transform="matrix(-1 0 0 1 15 10)" fill="#2B100D"/>
<rect width="1" height="1" transform="matrix(-1 0 0 1 15 11)" fill="#2B100D"/>
<rect width="1" height="1" transform="matrix(-1 0 0 1 16 11)" fill="#2B100D"/>
<rect width="1" height="1" transform="matrix(-1 0 0 1 15 12)" fill="#2B100D"/>
<rect width="1" height="1" transform="matrix(-1 0 0 1 14 11)" fill="#2B100D"/>
<rect x="5" y="10" width="1" height="1" fill="#2B100D"/>
<rect x="6" y="12" width="1" height="1" fill="#2B100D"/>
<rect width="1" height="1" transform="matrix(-1 0 0 1 18 13)" fill="#2B100D"/>
<rect x="7" y="14" width="1" height="1" fill="#2B100D"/>
<rect width="1" height="1" transform="matrix(-1 0 0 1 17 14)" fill="#2B100D"/>
<rect x="9" y="15" width="1" height="1" fill="#2B100D"/>
<rect width="1" height="1" transform="matrix(-1 0 0 1 15 15)" fill="#2B100D"/>
<rect x="11" y="16" width="1" height="1" fill="#2B100D"/>
<rect width="1" height="1" transform="matrix(-1 0 0 1 13 16)" fill="#2B100D"/>
<rect x="7" y="21" width="1" height="1" fill="#2B100D"/>
<rect x="8" y="20" width="1" height="1" fill="#2B100D"/>
<rect x="8" y="21" width="1" height="1" fill="#2B100D"/>
<rect x="9" y="21" width="1" height="1" fill="#2B100D"/>
<rect x="10" y="21" width="1" height="1" fill="#2B100D"/>
<rect x="11" y="21" width="1" height="1" fill="#2B100D"/>
<rect x="12" y="21" width="1" height="1" fill="#2B100D"/>
<rect x="13" y="21" width="1" height="1" fill="#2B100D"/>
<rect x="14" y="21" width="1" height="1" fill="#2B100D"/>
<rect x="15" y="21" width="1" height="1" fill="#2B100D"/>
<rect x="9" y="20" width="1" height="1" fill="#2B100D"/>
<rect x="10" y="20" width="1" height="1" fill="#2B100D"/>
<rect x="11" y="20" width="1" height="1" fill="#2B100D"/>
<rect x="12" y="20" width="1" height="1" fill="#2B100D"/>
<rect x="13" y="20" width="1" height="1" fill="#2B100D"/>
<rect x="15" y="20" width="1" height="1" fill="#2B100D"/>
<rect x="16" y="21" width="1" height="1" fill="#2B100D"/>
<rect x="14" y="20" width="1" height="1" fill="#2B100D"/>
</svg>
