<?xml version="1.0" encoding="UTF-8" standalone="no"?>
<!DOCTYPE svg PUBLIC "-//W3C//DTD SVG 1.1//EN" "http://www.w3.org/Graphics/SVG/1.1/DTD/svg11.dtd">
<svg width="100%" height="100%" viewBox="0 0 87 48" version="1.1" xmlns="http://www.w3.org/2000/svg" xmlns:xlink="http://www.w3.org/1999/xlink" xml:space="preserve" xmlns:serif="http://www.serif.com/" style="fill-rule:evenodd;clip-rule:evenodd;stroke-linejoin:round;stroke-miterlimit:2;">
    <path d="M0,48L0,12L2,12L2,10L4,10L4,8L6,8L6,6L8,6L8,4L10,4L10,2L12,2L12,0L86,0L86,36L84,36L84,38L82,38L82,40L80,40L80,42L78,42L78,44L76,44L76,46L74,46L74,48L0,48Z" style="fill:rgb(43,16,13);"/>
</svg>
