<svg width="52" height="52" viewBox="0 0 52 52" fill="none" xmlns="http://www.w3.org/2000/svg">
<rect x="1.04" y="1.04" width="49.92" height="49.92" rx="2.96" fill="#FFFCF6" stroke="#FFFCF6" stroke-width="1.92" stroke-linecap="round"/>
<rect x="2" y="2" width="48" height="48" fill="#FFFCF6"/>
<path fill-rule="evenodd" clip-rule="evenodd" d="M2.17719 3.17697C2 3.56941 2 4.07294 2 5.08V11.615C2 11.7409 2 11.8038 2.02215 11.8529C2.0472 11.9084 2.09164 11.9528 2.14712 11.9779C2.19618 12 2.25912 12 2.385 12H6.615C6.74088 12 6.80382 12 6.85288 11.9779C6.90836 11.9528 6.9528 11.9084 6.97785 11.8529C7 11.8038 7 11.7409 7 11.615V10.08C7 9.07294 7 8.56941 7.17719 8.17697C7.37761 7.7331 7.7331 7.37761 8.17697 7.17719C8.56941 7 9.07294 7 10.08 7H41.92C42.9271 7 43.4306 7 43.823 7.17719C44.2669 7.37761 44.6224 7.7331 44.8228 8.17697C45 8.56941 45 9.07294 45 10.08V11.615C45 11.7409 45 11.8038 45.0221 11.8529C45.0472 11.9084 45.0916 11.9528 45.1471 11.9779C45.1962 12 45.2591 12 45.385 12H49.615C49.7409 12 49.8038 12 49.8529 11.9779C49.9084 11.9528 49.9528 11.9084 49.9779 11.8529C50 11.8038 50 11.7409 50 11.615V5.08C50 4.07294 50 3.56941 49.8228 3.17697C49.6224 2.7331 49.2669 2.37761 48.823 2.17719C48.4306 2 47.9271 2 46.92 2H5.08C4.07294 2 3.56941 2 3.17697 2.17719C2.7331 2.37761 2.37761 2.7331 2.17719 3.17697ZM2.385 38C2.25912 38 2.19618 38 2.14712 37.9779C2.09164 37.9528 2.0472 37.9084 2.02215 37.8529C2 37.8038 2 37.7409 2 37.615V14.385C2 14.2591 2 14.1962 2.02215 14.1471C2.0472 14.0916 2.09164 14.0472 2.14712 14.0221C2.19618 14 2.25912 14 2.385 14H6.615C6.74088 14 6.80382 14 6.85288 14.0221C6.90836 14.0472 6.9528 14.0916 6.97785 14.1471C7 14.1962 7 14.2591 7 14.385V37.615C7 37.7409 7 37.8038 6.97785 37.8529C6.9528 37.9084 6.90836 37.9528 6.85288 37.9779C6.80382 38 6.74088 38 6.615 38H2.385ZM2.385 40C2.25912 40 2.19618 40 2.14712 40.0221C2.09164 40.0472 2.0472 40.0916 2.02215 40.1471C2 40.1962 2 40.2591 2 40.385V46.92C2 47.9271 2 48.4306 2.17719 48.823C2.37761 49.2669 2.7331 49.6224 3.17697 49.8228C3.56941 50 4.07294 50 5.08 50H46.92C47.9271 50 48.4306 50 48.823 49.8228C49.2669 49.6224 49.6224 49.2669 49.8228 48.823C50 48.4306 50 47.9271 50 46.92V40.385C50 40.2591 50 40.1962 49.9779 40.1471C49.9528 40.0916 49.9084 40.0472 49.8529 40.0221C49.8038 40 49.7409 40 49.615 40H45.385C45.2591 40 45.1962 40 45.1471 40.0221C45.0916 40.0472 45.0472 40.0916 45.0221 40.1471C45 40.1962 45 40.2591 45 40.385V41.92C45 42.9271 45 43.4306 44.8228 43.823C44.6224 44.2669 44.2669 44.6224 43.823 44.8228C43.4306 45 42.9271 45 41.92 45H10.08C9.07294 45 8.56941 45 8.17697 44.8228C7.7331 44.6224 7.37761 44.2669 7.17719 43.823C7 43.4306 7 42.9271 7 41.92V40.385C7 40.2591 7 40.1962 6.97785 40.1471C6.9528 40.0916 6.90836 40.0472 6.85288 40.0221C6.80382 40 6.74088 40 6.615 40H2.385ZM45 37.615C45 37.7409 45 37.8038 45.0221 37.8529C45.0472 37.9084 45.0916 37.9528 45.1471 37.9779C45.1962 38 45.2591 38 45.385 38H49.615C49.7409 38 49.8038 38 49.8529 37.9779C49.9084 37.9528 49.9528 37.9084 49.9779 37.8529C50 37.8038 50 37.7409 50 37.615V14.385C50 14.2591 50 14.1962 49.9779 14.1471C49.9528 14.0916 49.9084 14.0472 49.8529 14.0221C49.8038 14 49.7409 14 49.615 14H45.385C45.2591 14 45.1962 14 45.1471 14.0221C45.0916 14.0472 45.0472 14.0916 45.0221 14.1471C45 14.1962 45 14.2591 45 14.385V37.615Z" fill="#FF7758"/>
<path fill-rule="evenodd" clip-rule="evenodd" d="M2 5.08C2 4.07294 2 3.56941 2.17719 3.17697C2.37761 2.7331 2.7331 2.37761 3.17697 2.17719C3.56941 2 4.07294 2 5.08 2H46.92C47.9271 2 48.4306 2 48.823 2.17719C49.2669 2.37761 49.6224 2.7331 49.8228 3.17697C50 3.56941 50 4.07294 50 5.08V11.615C50 11.7409 50 11.8038 49.9779 11.8529C49.9528 11.9084 49.9084 11.9528 49.8529 11.9779C49.8038 12 49.7409 12 49.615 12H43.385C43.2591 12 43.1962 12 43.1471 12.0221C43.0916 12.0472 43.0472 12.0916 43.0221 12.1471C43 12.1962 43 12.2591 43 12.385V39.92C43 40.9271 43 41.4306 42.8228 41.823C42.6224 42.2669 42.2669 42.6224 41.823 42.8228C41.4306 43 40.9271 43 39.92 43H12.08C11.0729 43 10.5694 43 10.177 42.8228C9.7331 42.6224 9.37761 42.2669 9.17719 41.823C9 41.4306 9 40.9271 9 39.92V12.385C9 12.2591 9 12.1962 8.97785 12.1471C8.9528 12.0916 8.90836 12.0472 8.85288 12.0221C8.80382 12 8.74088 12 8.615 12H2.385C2.25912 12 2.19618 12 2.14712 11.9779C2.09164 11.9528 2.0472 11.9084 2.02215 11.8529C2 11.8038 2 11.7409 2 11.615V5.08Z" fill="#2B100D"/>
</svg>
